<svg version="1.2" xmlns="http://www.w3.org/2000/svg" viewBox="0 0 2000 2000" width="1024" height="1024">
	<title>vecteezy_origami-bird-logo-icon-design-template-vector_7345081-ai</title>
	<style>
		.s0 { fill: #000000 } 
	</style>
	<g id="_Artboards_">
	</g>
	<g id="Layer 1">
		<path id="&lt;Compound Path&gt;" fill-rule="evenodd" class="s0" d="m1642.6 840.9h-228.1l-28 132.8-2.5 11.9-7.2 4.9-409.2 278.2 24.4 93.6-297.6 179.1 170.9-559.8-507.9-523 588.6 106.2 15.8 2.8 215.1 224.4 242-90.9 12.3-4.6zm-679.4-236.5l-69.3 361.6h446.3l-169.1-145.8-5.9-5.1zm-91.7 348.5l69.9-364.2-513.6-92.7zm92.3 397.8l-24.2-92.5-61.4-235.1-141.8 464.5zm369.6-360.2h-438.5l66.1 253.1zm56.1-149.6l5.2-24.4 18.3-87.1-215.7 81 168.1 145.1zm30.1-24.4h144l-125.9-85.9z"/>
	</g>
</svg>