<svg version="1.2" xmlns="http://www.w3.org/2000/svg" viewBox="0 0 2000 2000" width="512" height="512">
	<title>vecteezy_origami-bird-logo-icon-design-template-vector_7634213-ai</title>
	<style>
		.s0 { fill: #222831 } 
	</style>
	<g id="_Artboards_">
	</g>
	<g id="Layer 1">
		<path id="&lt;Compound Path&gt;" fill-rule="evenodd" class="s0" d="m1343.5 888.3l-101.2 103.1 0.4 0.4-9.2 8.5-234.8 219.3 55.5 75.7-250.6 288.8v-538.2l-408.3-434.1 27.1-0.8c0 0 1.4 0 4-0.1q1.7-0.1 4-0.1c3.6-0.1 8.4-0.3 14.2-0.5q1.2 0 2.5 0 3.5-0.1 7.5-0.2 1.2-0.1 2.4-0.1 1.1-0.1 2.4-0.1 0.8 0 1.7 0c5.5-0.2 11.4-0.4 17.8-0.6q0.9 0 1.8 0 3.9-0.1 8.1-0.3 2 0 4-0.1 5.2-0.1 10.7-0.3 3-0.1 6.2-0.2c4.2-0.1 8.5-0.2 12.9-0.4q2.4 0 4.9-0.1c9.1-0.3 18.4-0.6 28.1-0.8q2.8-0.1 5.7-0.2c11.5-0.3 23.3-0.7 35.3-1q3-0.1 6-0.2 9.1-0.3 18.2-0.6 6.1-0.1 12.1-0.3c8.2-0.3 16.3-0.5 24.4-0.7q7.4-0.3 14.8-0.5 3.2-0.1 6.4-0.2 6.3-0.1 12.6-0.3 6.8-0.2 13.6-0.4-1.9-2.7-3.8-5.4c-0.2-0.2-0.2-0.3-0.4-0.5q-3.4-4.7-7-9.8-1.2-1.7-2.5-3.5-2-2.7-4-5.5-4.7-6.6-9.6-13.4-5-6.7-10-13.6c-4.8-6.7-9.7-13.4-14.5-20.1q-1.4-1.9-2.8-3.8-1.7-2.2-3.3-4.5c-1.4-1.9-2.9-3.9-4.3-5.9q-0.3-0.4-0.7-0.9-2.1-2.9-4.2-5.8-2.4-3.3-4.8-6.5-3.4-4.7-6.8-9.3-1.3-1.7-2.6-3.5-2.2-3-4.2-5.8-1.5-2.1-3-4-1.7-2.4-3.4-4.6c-16.9-23.1-28.7-39.2-29-39.6l-15.4-20.8 422.4 22.5 224.3 336 220.2-14.6 11.2-0.7 3.8 5.1 154.4 203.7zm130-53.2l-33.9-44.7-58.3 59.4-18.5 18.9 177 53.9zm-765.9-270.3c1 1.3 1.9 2.7 2.9 4 8.7 12.1 16.8 23.4 23.6 33l27.6-0.8c55.4-1.6 82.1-2.3 84-2.3 0.8 0 1.5 0 2.2 0.1 2.8 0.4 6.1 2.4 16.2 11.8 0.1 0 0.1 0 0.1 0 1.4 1.3 2.9 2.7 4.5 4.3 0.1 0 0.1 0 0.1 0q1.2 1.3 2.5 2.5c9.6 9.2 23.4 22.9 43.9 43.2q3 3 6 6.1l3.2 3.1q1.6 1.6 3.2 3.2 1.6 1.6 3.2 3.2l3.4 3.4q3.4 3.3 6.8 6.9l3.6 3.5c26.4 26.4 58.3 58.5 95.2 95.9l147.2-9.7-209.7-314.1-358.5-19.1q1.3 1.9 2.7 3.8c0.9 1.2 1.8 2.4 2.8 3.7q0.1 0.1 0.2 0.3 1.3 1.8 2.7 3.7 1 1.3 2 2.7 1.3 1.8 2.7 3.7 1.2 1.6 2.4 3.2 0.8 1.2 1.7 2.4 0.5 0.6 0.9 1.2 2.2 3.1 4.6 6.2 1.2 1.7 2.5 3.5 0.9 1.2 1.8 2.5 3.6 4.8 7.2 9.8 1.1 1.5 2.2 3c1.9 2.7 3.9 5.4 5.9 8.1 2.8 3.7 5.5 7.6 8.4 11.4q2.8 3.9 5.6 7.8c0.9 1.2 1.9 2.5 2.8 3.7q1.6 2.3 3.3 4.6 3.6 5 7.2 9.9 1 1.5 2.1 2.9c5.8 8.1 11.6 16 17.1 23.7zm315.4 729.2l-50-68.1-35.5-37.7-109.4-116.3v446.8zm184.7-302.9l-180.8-183.5q-0.2-0.3-0.5-0.6h-0.1c-139.4-141-175.6-175.8-184.7-183.8-10.8 0.2-41.7 1.1-79.2 2.2l-11.5 0.4-22.7 0.6q-3.2 0.1-6.5 0.2c-94.7 2.8-217.7 6.4-271.4 8l374.5 398.1 3.3 3.5 154.9 164.7zm109.5-110.8l14-14.4 78.4-79.8-178.8 11.7-64.8 4.3-103.5 6.8c71 71.8 139.1 141.1 162.7 165.1z"/>
	</g>
</svg>