<?xml version="1.0" standalone="no"?><svg xmlns:xlink="http://www.w3.org/1999/xlink" xmlns="http://www.w3.org/2000/svg" viewBox="0 0 1000 625.0053584135666" preserveAspectRatio="xMaxYMax slice"><g transform="scale(0.8573461706633286)"><rect x="0" y="0" width="1166.4" height="729" fill="#ffffff"/><rect x="0" y="0" width="72.9" height="72.9" fill="#EBD9B4"/><rect x="0" y="0" width="72.9" height="72.9" fill="#9DBC98"/><rect x="72.9" y="0" width="72.9" height="72.9" fill="#638889"/><rect x="72.9" y="0" width="72.9" height="72.9" fill="#EBD9B4"/><rect x="145.8" y="0" width="72.9" height="72.9" fill="#9DBC98"/><polygon points="145.8,0 218.70000000000002,72.9 145.8,72.9" fill="#F9EFDB"/><rect x="218.7" y="0" width="72.9" height="72.9" fill="#638889"/><path d="M 218.7 0 A 72.9 72.9 0 0 1  291.6 72.9 L 218.7 0 A 72.9 72.9 0 0 0 291.6 72.9" fill="#EBD9B4"/><rect x="291.6" y="0" width="72.9" height="72.9" fill="#9DBC98"/><path d="M 291.6 0 A 72.9 72.9 0 0 0 364.5 72.9 L 364.5 0" fill="#EBD9B4"/><rect x="364.5" y="0" width="72.9" height="72.9" fill="#EBD9B4"/><rect x="364.5" y="0" width="72.9" height="72.9" fill="#EBD9B4"/><rect x="437.4" y="0" width="72.9" height="72.9" fill="#638889"/><polygon points="437.4,0 510.29999999999995,0 437.4,72.9" fill="#EBD9B4"/><rect x="510.3" y="0" width="72.9" height="72.9" fill="#638889"/><path d="M 510.3 0 A 72.9 72.9 0 0 1  583.2 72.9 L 510.3 0 A 72.9 72.9 0 0 0 583.2 72.9" fill="#EBD9B4"/><rect x="583.2" y="0" width="72.9" height="72.9" fill="#ffffff"/><rect x="583.2" y="0" width="36.45" height="36.45" fill="#9DBC98"/><path d="M 583.2 36.45 A 36.45 36.45 0 0 1 619.6500000000001 0 L 619.6500000000001 9.1125 A 27.337500000000002 27.337500000000002 0 0 0 592.3125 36.45" fill="#F9EFDB"/><rect x="619.65" y="0" width="36.45" height="36.45" fill="#EBD9B4"/><path d="M 619.65 0 A 36.45 36.45 0 0 1 656.1 36.45 L 646.9875 36.45 A 27.337500000000002 27.337500000000002 0 0 0 619.65 9.1125" fill="#9DBC98"/><rect x="583.2" y="36.45" width="36.45" height="36.45" fill="#9DBC98"/><path d="M 583.2 36.45 A 36.45 36.45 0 0 0 619.6500000000001 72.9 L 619.6500000000001 63.78750000000001 A 27.337500000000002 27.337500000000002 0 0 1 592.3125 36.45" fill="#EBD9B4"/><rect x="619.65" y="36.45" width="36.45" height="36.45" fill="#638889"/><path d="M 619.65 72.9 A 36.45 36.45 0 0 0 656.1 36.45 L 646.9875 36.45 A 27.337500000000002 27.337500000000002 0 0 1 619.65 63.78750000000001" fill="#F9EFDB"/><rect x="656.1" y="0" width="72.9" height="72.9" fill="#ffffff"/><rect x="656.1" y="0" width="36.45" height="36.45" fill="#EBD9B4"/><polygon points="692.5500000000001,0 692.5500000000001,36.45 656.1,36.45" fill="#9DBC98"/><rect x="692.55" y="0" width="36.45" height="36.45" fill="#9DBC98"/><polygon points="692.55,0 729,36.45 692.55,36.45" fill="#F9EFDB"/><rect x="656.1" y="36.45" width="36.45" height="36.45" fill="#638889"/><polygon points="656.1,36.45 692.5500000000001,36.45 656.1,72.9" fill="#9DBC98"/><rect x="692.55" y="36.45" width="36.45" height="36.45" fill="#638889"/><polygon points="692.55,36.45 729,36.45 729,72.9" fill="#9DBC98"/><rect x="729" y="0" width="72.9" height="72.9" fill="#EBD9B4"/><polygon points="729,0 801.9,0 729,72.9" fill="#F9EFDB"/><rect x="801.9" y="0" width="72.9" height="72.9" fill="#9DBC98"/><rect x="801.9" y="0" width="72.9" height="72.9" fill="#638889"/><rect x="874.8000000000001" y="0" width="72.9" height="72.9" fill="#ffffff"/><rect x="874.8" y="0" width="36.45" height="36.45" fill="#9DBC98"/><path d="M 874.8 0 A 36.45 36.45 0 0 1 911.25 36.45 L 874.8 36.45" fill="#9DBC98"/><rect x="911.25" y="0" width="36.45" height="36.45" fill="#638889"/><path d="M 911.25 36.45 A 36.45 36.45 0 0 1  947.7 0 L 947.7 36.45" fill="#F9EFDB"/><rect x="874.8" y="36.45" width="36.45" height="36.45" fill="#638889"/><path d="M 874.8 72.9 A 36.45 36.45 0 0 0 911.25 36.45 L 874.8 36.45" fill="#9DBC98"/><rect x="911.25" y="36.45" width="36.45" height="36.45" fill="#EBD9B4"/><path d="M 911.25 36.45 A 36.45 36.45 0 0 0 947.7 72.9 L 947.7 36.45" fill="#638889"/><rect x="947.7" y="0" width="72.9" height="72.9" fill="#ffffff"/><rect x="947.7" y="0" width="36.45" height="36.45" fill="#F9EFDB"/><path d="M 947.7 36.45 A 36.45 36.45 0 0 1 984.1500000000001 0 L 984.1500000000001 9.1125 A 27.337500000000002 27.337500000000002 0 0 0 956.8125 36.45" fill="#638889"/><rect x="984.15" y="0" width="36.45" height="36.45" fill="#9DBC98"/><path d="M 984.15 0 A 36.45 36.45 0 0 1 1020.6 36.45 L 1011.4875 36.45 A 27.337500000000002 27.337500000000002 0 0 0 984.15 9.1125" fill="#9DBC98"/><rect x="947.7" y="36.45" width="36.45" height="36.45" fill="#9DBC98"/><path d="M 947.7 36.45 A 36.45 36.45 0 0 0 984.1500000000001 72.9 L 984.1500000000001 63.78750000000001 A 27.337500000000002 27.337500000000002 0 0 1 956.8125 36.45" fill="#9DBC98"/><rect x="984.15" y="36.45" width="36.45" height="36.45" fill="#F9EFDB"/><path d="M 984.15 72.9 A 36.45 36.45 0 0 0 1020.6 36.45 L 1011.4875 36.45 A 27.337500000000002 27.337500000000002 0 0 1 984.15 63.78750000000001" fill="#9DBC98"/><rect x="1020.6" y="0" width="72.9" height="72.9" fill="#9DBC98"/><path d="M 1020.6 0 A 72.9 72.9 0 0 0 1093.5 72.9 L 1093.5 0" fill="#9DBC98"/><rect x="1093.5" y="0" width="72.9" height="72.9" fill="#ffffff"/><rect x="1093.5" y="0" width="36.45" height="36.45" fill="#9DBC98"/><circle cx="1111.725" cy="18.225" r="18.225" fill="#EBD9B4"/><rect x="1129.95" y="0" width="36.45" height="36.45" fill="#638889"/><rect x="1129.95" y="0" width="36.45" height="36.45" fill="#638889"/><rect x="1093.5" y="36.45" width="36.45" height="36.45" fill="#EBD9B4"/><circle cx="1111.725" cy="54.675000000000004" r="18.225" fill="#EBD9B4"/><rect x="1129.95" y="36.45" width="36.45" height="36.45" fill="#EBD9B4"/><rect x="1129.95" y="36.45" width="36.45" height="36.45" fill="#9DBC98"/><rect x="0" y="72.9" width="72.9" height="72.9" fill="#638889"/><rect x="0" y="72.9" width="72.9" height="72.9" fill="#F9EFDB"/><rect x="72.9" y="72.9" width="72.9" height="72.9" fill="#F9EFDB"/><polygon points="72.9,72.9 145.8,72.9 145.8,145.8" fill="#9DBC98"/><rect x="145.8" y="72.9" width="72.9" height="72.9" fill="#ffffff"/><rect x="145.8" y="72.9" width="36.45" height="36.45" fill="#638889"/><path d="M 145.8 72.9 A 36.45 36.45 0 0 1 182.25 109.35000000000001 L 145.8 109.35000000000001" fill="#638889"/><rect x="182.25" y="72.9" width="36.45" height="36.45" fill="#EBD9B4"/><path d="M 182.25 109.35000000000001 A 36.45 36.45 0 0 1  218.7 72.9 L 218.7 109.35000000000001" fill="#EBD9B4"/><rect x="145.8" y="109.35" width="36.45" height="36.45" fill="#638889"/><path d="M 145.8 145.8 A 36.45 36.45 0 0 0 182.25 109.35 L 145.8 109.35" fill="#638889"/><rect x="182.25" y="109.35" width="36.45" height="36.45" fill="#EBD9B4"/><path d="M 182.25 109.35 A 36.45 36.45 0 0 0 218.7 145.8 L 218.7 109.35" fill="#9DBC98"/><rect x="218.7" y="72.9" width="72.9" height="72.9" fill="#EBD9B4"/><rect x="218.7" y="72.9" width="72.9" height="72.9" fill="#638889"/><rect x="291.6" y="72.9" width="72.9" height="72.9" fill="#ffffff"/><rect x="291.6" y="72.9" width="36.45" height="36.45" fill="#EBD9B4"/><polygon points="328.05,72.9 328.05,109.35000000000001 291.6,109.35000000000001" fill="#638889"/><rect x="328.05" y="72.9" width="36.45" height="36.45" fill="#F9EFDB"/><polygon points="328.05,72.9 364.5,72.9 328.05,109.35000000000001" fill="#EBD9B4"/><rect x="291.6" y="109.35" width="36.45" height="36.45" fill="#9DBC98"/><polygon points="291.6,109.35 328.05,109.35 328.05,145.8" fill="#F9EFDB"/><rect x="328.05" y="109.35" width="36.45" height="36.45" fill="#F9EFDB"/><polygon points="328.05,109.35 364.5,145.8 328.05,145.8" fill="#F9EFDB"/><rect x="364.5" y="72.9" width="72.9" height="72.9" fill="#EBD9B4"/><rect x="364.5" y="72.9" width="72.9" height="72.9" fill="#F9EFDB"/><rect x="437.40000000000003" y="72.9" width="72.9" height="72.9" fill="#ffffff"/><rect x="437.4" y="72.9" width="36.45" height="36.45" fill="#638889"/><path d="M 437.4 109.35000000000001 A 36.45 36.45 0 0 1 473.84999999999997 72.9 L 473.84999999999997 82.0125 A 27.337500000000002 27.337500000000002 0 0 0 446.5125 109.35000000000001" fill="#638889"/><rect x="473.85" y="72.9" width="36.45" height="36.45" fill="#EBD9B4"/><path d="M 473.85 72.9 A 36.45 36.45 0 0 1 510.3 109.35000000000001 L 501.1875 109.35000000000001 A 27.337500000000002 27.337500000000002 0 0 0 473.85 82.0125" fill="#EBD9B4"/><rect x="437.4" y="109.35" width="36.45" height="36.45" fill="#F9EFDB"/><path d="M 437.4 109.35 A 36.45 36.45 0 0 0 473.84999999999997 145.8 L 473.84999999999997 136.6875 A 27.337500000000002 27.337500000000002 0 0 1 446.5125 109.35" fill="#638889"/><rect x="473.85" y="109.35" width="36.45" height="36.45" fill="#638889"/><path d="M 473.85 145.8 A 36.45 36.45 0 0 0 510.3 109.35 L 501.1875 109.35 A 27.337500000000002 27.337500000000002 0 0 1 473.85 136.6875" fill="#9DBC98"/><rect x="510.30000000000007" y="72.9" width="72.9" height="72.9" fill="#ffffff"/><rect x="510.3" y="72.9" width="36.45" height="36.45" fill="#9DBC98"/><polygon points="546.75,72.9 546.75,109.35000000000001 510.3,109.35000000000001" fill="#638889"/><rect x="546.75" y="72.9" width="36.45" height="36.45" fill="#638889"/><polygon points="546.75,72.9 583.2,72.9 546.75,109.35000000000001" fill="#9DBC98"/><rect x="510.3" y="109.35" width="36.45" height="36.45" fill="#EBD9B4"/><polygon points="510.3,109.35 546.75,109.35 546.75,145.8" fill="#9DBC98"/><rect x="546.75" y="109.35" width="36.45" height="36.45" fill="#638889"/><polygon points="546.75,109.35 583.2,145.8 546.75,145.8" fill="#638889"/><rect x="583.2" y="72.9" width="72.9" height="72.9" fill="#ffffff"/><rect x="583.2" y="72.9" width="36.45" height="36.45" fill="#F9EFDB"/><polygon points="619.6500000000001,72.9 619.6500000000001,109.35000000000001 583.2,109.35000000000001" fill="#638889"/><rect x="619.65" y="72.9" width="36.45" height="36.45" fill="#F9EFDB"/><polygon points="619.65,72.9 656.1,109.35000000000001 619.65,109.35000000000001" fill="#9DBC98"/><rect x="583.2" y="109.35" width="36.45" height="36.45" fill="#EBD9B4"/><polygon points="583.2,109.35 619.6500000000001,109.35 583.2,145.8" fill="#F9EFDB"/><rect x="619.65" y="109.35" width="36.45" height="36.45" fill="#EBD9B4"/><polygon points="619.65,109.35 656.1,109.35 656.1,145.8" fill="#EBD9B4"/><rect x="656.1" y="72.9" width="72.9" height="72.9" fill="#F9EFDB"/><rect x="656.1" y="72.9" width="72.9" height="72.9" fill="#9DBC98"/><rect x="729" y="72.9" width="72.9" height="72.9" fill="#9DBC98"/><polygon points="729,72.9 801.9,72.9 801.9,145.8" fill="#9DBC98"/><rect x="801.9000000000001" y="72.9" width="72.9" height="72.9" fill="#ffffff"/><rect x="801.9" y="72.9" width="36.45" height="36.45" fill="#F9EFDB"/><path d="M 801.9 72.9 A 36.45 36.45 0 0 1 838.35 109.35000000000001 L 801.9 109.35000000000001" fill="#EBD9B4"/><rect x="838.35" y="72.9" width="36.45" height="36.45" fill="#EBD9B4"/><path d="M 838.35 109.35000000000001 A 36.45 36.45 0 0 1  874.8000000000001 72.9 L 874.8000000000001 109.35000000000001" fill="#EBD9B4"/><rect x="801.9" y="109.35" width="36.45" height="36.45" fill="#9DBC98"/><path d="M 801.9 145.8 A 36.45 36.45 0 0 0 838.35 109.35 L 801.9 109.35" fill="#F9EFDB"/><rect x="838.35" y="109.35" width="36.45" height="36.45" fill="#9DBC98"/><path d="M 838.35 109.35 A 36.45 36.45 0 0 0 874.8000000000001 145.8 L 874.8000000000001 109.35" fill="#638889"/><rect x="874.8000000000001" y="72.9" width="72.9" height="72.9" fill="#ffffff"/><rect x="874.8" y="72.9" width="36.45" height="36.45" fill="#638889"/><path d="M 874.8 109.35000000000001 A 36.45 36.45 0 0 0 911.25 72.9 L 874.8 72.9" fill="#9DBC98"/><rect x="911.25" y="72.9" width="36.45" height="36.45" fill="#638889"/><path d="M 911.25 72.9 A 36.45 36.45 0 0 0 947.7 109.35000000000001 L 947.7 72.9" fill="#EBD9B4"/><rect x="874.8" y="109.35" width="36.45" height="36.45" fill="#F9EFDB"/><path d="M 874.8 109.35 A 36.45 36.45 0 0 1 911.25 145.8 L 874.8 145.8" fill="#638889"/><rect x="911.25" y="109.35" width="36.45" height="36.45" fill="#9DBC98"/><path d="M 911.25 145.8 A 36.45 36.45 0 0 1  947.7 109.35 L 947.7 145.8" fill="#9DBC98"/><rect x="947.7" y="72.9" width="72.9" height="72.9" fill="#ffffff"/><rect x="947.7" y="72.9" width="36.45" height="36.45" fill="#9DBC98"/><polygon points="984.1500000000001,72.9 984.1500000000001,109.35000000000001 947.7,109.35000000000001" fill="#9DBC98"/><rect x="984.15" y="72.9" width="36.45" height="36.45" fill="#F9EFDB"/><polygon points="984.15,72.9 1020.6,109.35000000000001 984.15,109.35000000000001" fill="#F9EFDB"/><rect x="947.7" y="109.35" width="36.45" height="36.45" fill="#9DBC98"/><polygon points="947.7,109.35 984.1500000000001,109.35 947.7,145.8" fill="#9DBC98"/><rect x="984.15" y="109.35" width="36.45" height="36.45" fill="#F9EFDB"/><polygon points="984.15,109.35 1020.6,109.35 1020.6,145.8" fill="#638889"/><rect x="1020.6000000000001" y="72.9" width="72.9" height="72.9" fill="#ffffff"/><rect x="1020.6" y="72.9" width="36.45" height="36.45" fill="#638889"/><path d="M 1020.6 109.35000000000001 A 36.45 36.45 0 0 1  1057.05 72.9 L 1057.05 109.35000000000001" fill="#F9EFDB"/><rect x="1057.05" y="72.9" width="36.45" height="36.45" fill="#638889"/><path d="M 1057.05 72.9 A 36.45 36.45 0 0 1 1093.5 109.35000000000001 L 1057.05 109.35000000000001" fill="#F9EFDB"/><rect x="1020.6" y="109.35" width="36.45" height="36.45" fill="#9DBC98"/><path d="M 1020.6 109.35 A 36.45 36.45 0 0 0 1057.05 145.8 L 1057.05 109.35" fill="#638889"/><rect x="1057.05" y="109.35" width="36.45" height="36.45" fill="#F9EFDB"/><path d="M 1057.05 145.8 A 36.45 36.45 0 0 0 1093.5 109.35 L 1057.05 109.35" fill="#F9EFDB"/><rect x="1093.5" y="72.9" width="72.9" height="72.9" fill="#ffffff"/><rect x="1093.5" y="72.9" width="36.45" height="36.45" fill="#F9EFDB"/><path d="M 1093.5 109.35000000000001 A 36.45 36.45 0 0 1  1129.95 72.9 L 1129.95 109.35000000000001" fill="#EBD9B4"/><rect x="1129.95" y="72.9" width="36.45" height="36.45" fill="#9DBC98"/><path d="M 1129.95 72.9 A 36.45 36.45 0 0 1 1166.4 109.35000000000001 L 1129.95 109.35000000000001" fill="#F9EFDB"/><rect x="1093.5" y="109.35" width="36.45" height="36.45" fill="#F9EFDB"/><path d="M 1093.5 109.35 A 36.45 36.45 0 0 0 1129.95 145.8 L 1129.95 109.35" fill="#9DBC98"/><rect x="1129.95" y="109.35" width="36.45" height="36.45" fill="#EBD9B4"/><path d="M 1129.95 145.8 A 36.45 36.45 0 0 0 1166.4 109.35 L 1129.95 109.35" fill="#638889"/><rect x="0" y="145.8" width="72.9" height="72.9" fill="#ffffff"/><rect x="0" y="145.8" width="36.45" height="36.45" fill="#F9EFDB"/><polygon points="36.45,145.8 36.45,182.25 0,182.25" fill="#9DBC98"/><rect x="36.45" y="145.8" width="36.45" height="36.45" fill="#EBD9B4"/><polygon points="36.45,145.8 72.9,145.8 36.45,182.25" fill="#F9EFDB"/><rect x="0" y="182.25" width="36.45" height="36.45" fill="#9DBC98"/><polygon points="0,182.25 36.45,182.25 36.45,218.7" fill="#EBD9B4"/><rect x="36.45" y="182.25" width="36.45" height="36.45" fill="#EBD9B4"/><polygon points="36.45,182.25 72.9,218.7 36.45,218.7" fill="#EBD9B4"/><rect x="72.9" y="145.8" width="72.9" height="72.9" fill="#638889"/><path d="M 72.9 218.70000000000002 A 72.9 72.9 0 0 1  145.8 145.8 L 145.8 218.70000000000002" fill="#EBD9B4"/><rect x="145.8" y="145.8" width="72.9" height="72.9" fill="#ffffff"/><rect x="145.8" y="145.8" width="36.45" height="36.45" fill="#F9EFDB"/><path d="M 145.8 145.8 A 36.45 36.45 0 0 1 182.25 182.25 L 145.8 182.25" fill="#EBD9B4"/><rect x="182.25" y="145.8" width="36.45" height="36.45" fill="#EBD9B4"/><path d="M 182.25 182.25 A 36.45 36.45 0 0 1  218.7 145.8 L 218.7 182.25" fill="#EBD9B4"/><rect x="145.8" y="182.25" width="36.45" height="36.45" fill="#EBD9B4"/><path d="M 145.8 218.7 A 36.45 36.45 0 0 0 182.25 182.25 L 145.8 182.25" fill="#9DBC98"/><rect x="182.25" y="182.25" width="36.45" height="36.45" fill="#F9EFDB"/><path d="M 182.25 182.25 A 36.45 36.45 0 0 0 218.7 218.7 L 218.7 182.25" fill="#F9EFDB"/><rect x="218.7" y="145.8" width="72.9" height="72.9" fill="#F9EFDB"/><path d="M 218.7 218.70000000000002 A 72.9 72.9 0 0 1  291.6 145.8 L 291.6 218.70000000000002" fill="#EBD9B4"/><rect x="291.6" y="145.8" width="72.9" height="72.9" fill="#ffffff"/><rect x="291.6" y="145.8" width="36.45" height="36.45" fill="#EBD9B4"/><path d="M 291.6 182.25 A 36.45 36.45 0 0 1 328.05 145.8 L 328.05 154.91250000000002 A 27.337500000000002 27.337500000000002 0 0 0 300.71250000000003 182.25" fill="#9DBC98"/><rect x="328.05" y="145.8" width="36.45" height="36.45" fill="#638889"/><path d="M 328.05 145.8 A 36.45 36.45 0 0 1 364.5 182.25 L 355.3875 182.25 A 27.337500000000002 27.337500000000002 0 0 0 328.05 154.91250000000002" fill="#EBD9B4"/><rect x="291.6" y="182.25" width="36.45" height="36.45" fill="#EBD9B4"/><path d="M 291.6 182.25 A 36.45 36.45 0 0 0 328.05 218.7 L 328.05 209.5875 A 27.337500000000002 27.337500000000002 0 0 1 300.71250000000003 182.25" fill="#638889"/><rect x="328.05" y="182.25" width="36.45" height="36.45" fill="#9DBC98"/><path d="M 328.05 218.7 A 36.45 36.45 0 0 0 364.5 182.25 L 355.3875 182.25 A 27.337500000000002 27.337500000000002 0 0 1 328.05 209.5875" fill="#638889"/><rect x="364.5" y="145.8" width="72.9" height="72.9" fill="#ffffff"/><rect x="364.5" y="145.8" width="36.45" height="36.45" fill="#EBD9B4"/><polygon points="400.95,145.8 400.95,182.25 364.5,182.25" fill="#9DBC98"/><rect x="400.95" y="145.8" width="36.45" height="36.45" fill="#F9EFDB"/><polygon points="400.95,145.8 437.4,182.25 400.95,182.25" fill="#9DBC98"/><rect x="364.5" y="182.25" width="36.45" height="36.45" fill="#9DBC98"/><polygon points="364.5,182.25 400.95,182.25 364.5,218.7" fill="#9DBC98"/><rect x="400.95" y="182.25" width="36.45" height="36.45" fill="#EBD9B4"/><polygon points="400.95,182.25 437.4,182.25 437.4,218.7" fill="#638889"/><rect x="437.40000000000003" y="145.8" width="72.9" height="72.9" fill="#ffffff"/><rect x="437.4" y="145.8" width="36.45" height="36.45" fill="#638889"/><polygon points="473.84999999999997,145.8 473.84999999999997,182.25 437.4,182.25" fill="#F9EFDB"/><rect x="473.85" y="145.8" width="36.45" height="36.45" fill="#F9EFDB"/><polygon points="473.85,145.8 510.3,145.8 473.85,182.25" fill="#9DBC98"/><rect x="437.4" y="182.25" width="36.45" height="36.45" fill="#EBD9B4"/><polygon points="437.4,182.25 473.84999999999997,182.25 473.84999999999997,218.7" fill="#F9EFDB"/><rect x="473.85" y="182.25" width="36.45" height="36.45" fill="#9DBC98"/><polygon points="473.85,182.25 510.3,218.7 473.85,218.7" fill="#638889"/><rect x="510.3" y="145.8" width="72.9" height="72.9" fill="#9DBC98"/><rect x="510.3" y="145.8" width="72.9" height="72.9" fill="#F9EFDB"/><rect x="583.2" y="145.8" width="72.9" height="72.9" fill="#ffffff"/><rect x="583.2" y="145.8" width="36.45" height="36.45" fill="#9DBC98"/><polygon points="619.6500000000001,145.8 619.6500000000001,182.25 583.2,182.25" fill="#F9EFDB"/><rect x="619.65" y="145.8" width="36.45" height="36.45" fill="#9DBC98"/><polygon points="619.65,145.8 656.1,145.8 619.65,182.25" fill="#9DBC98"/><rect x="583.2" y="182.25" width="36.45" height="36.45" fill="#9DBC98"/><polygon points="583.2,182.25 619.6500000000001,182.25 619.6500000000001,218.7" fill="#638889"/><rect x="619.65" y="182.25" width="36.45" height="36.45" fill="#638889"/><polygon points="619.65,182.25 656.1,218.7 619.65,218.7" fill="#638889"/><rect x="656.1" y="145.8" width="72.9" height="72.9" fill="#EBD9B4"/><path d="M 656.1 145.8 A 72.9 72.9 0 0 1 729 218.70000000000002 L 656.1 218.70000000000002" fill="#EBD9B4"/><rect x="729" y="145.8" width="72.9" height="72.9" fill="#EBD9B4"/><path d="M 729 218.70000000000002 A 72.9 72.9 0 0 1  801.9 145.8 L 801.9 218.70000000000002" fill="#F9EFDB"/><rect x="801.9000000000001" y="145.8" width="72.9" height="72.9" fill="#ffffff"/><rect x="801.9" y="145.8" width="36.45" height="36.45" fill="#F9EFDB"/><polygon points="838.35,145.8 838.35,182.25 801.9,182.25" fill="#EBD9B4"/><rect x="838.35" y="145.8" width="36.45" height="36.45" fill="#F9EFDB"/><polygon points="838.35,145.8 874.8000000000001,145.8 838.35,182.25" fill="#638889"/><rect x="801.9" y="182.25" width="36.45" height="36.45" fill="#F9EFDB"/><polygon points="801.9,182.25 838.35,182.25 838.35,218.7" fill="#638889"/><rect x="838.35" y="182.25" width="36.45" height="36.45" fill="#638889"/><polygon points="838.35,182.25 874.8000000000001,218.7 838.35,218.7" fill="#F9EFDB"/><rect x="874.8" y="145.8" width="72.9" height="72.9" fill="#F9EFDB"/><polygon points="874.8,145.8 947.6999999999999,145.8 874.8,218.70000000000002" fill="#638889"/><rect x="947.7" y="145.8" width="72.9" height="72.9" fill="#ffffff"/><rect x="947.7" y="145.8" width="36.45" height="36.45" fill="#F9EFDB"/><polygon points="984.1500000000001,145.8 984.1500000000001,182.25 947.7,182.25" fill="#638889"/><rect x="984.15" y="145.8" width="36.45" height="36.45" fill="#9DBC98"/><polygon points="984.15,145.8 1020.6,145.8 984.15,182.25" fill="#F9EFDB"/><rect x="947.7" y="182.25" width="36.45" height="36.45" fill="#638889"/><polygon points="947.7,182.25 984.1500000000001,182.25 984.1500000000001,218.7" fill="#638889"/><rect x="984.15" y="182.25" width="36.45" height="36.45" fill="#F9EFDB"/><polygon points="984.15,182.25 1020.6,218.7 984.15,218.7" fill="#9DBC98"/><rect x="1020.6000000000001" y="145.8" width="72.9" height="72.9" fill="#ffffff"/><rect x="1020.6" y="145.8" width="36.45" height="36.45" fill="#EBD9B4"/><polygon points="1057.05,145.8 1057.05,182.25 1020.6,182.25" fill="#9DBC98"/><rect x="1057.05" y="145.8" width="36.45" height="36.45" fill="#EBD9B4"/><polygon points="1057.05,145.8 1093.5,145.8 1057.05,182.25" fill="#EBD9B4"/><rect x="1020.6" y="182.25" width="36.45" height="36.45" fill="#EBD9B4"/><polygon points="1020.6,182.25 1057.05,182.25 1057.05,218.7" fill="#638889"/><rect x="1057.05" y="182.25" width="36.45" height="36.45" fill="#EBD9B4"/><polygon points="1057.05,182.25 1093.5,218.7 1057.05,218.7" fill="#F9EFDB"/><rect x="1093.5" y="145.8" width="72.9" height="72.9" fill="#F9EFDB"/><path d="M 1093.5 145.8 A 72.9 72.9 0 0 1 1166.4 218.70000000000002 L 1093.5 218.70000000000002" fill="#EBD9B4"/><rect x="0" y="218.70000000000002" width="72.9" height="72.9" fill="#ffffff"/><rect x="0" y="218.7" width="36.45" height="36.45" fill="#638889"/><circle cx="18.225" cy="236.92499999999998" r="18.225" fill="#EBD9B4"/><rect x="36.45" y="218.7" width="36.45" height="36.45" fill="#EBD9B4"/><rect x="36.45" y="218.7" width="36.45" height="36.45" fill="#EBD9B4"/><rect x="0" y="255.15" width="36.45" height="36.45" fill="#EBD9B4"/><circle cx="18.225" cy="273.375" r="18.225" fill="#638889"/><rect x="36.45" y="255.15" width="36.45" height="36.45" fill="#638889"/><rect x="36.45" y="255.15" width="36.45" height="36.45" fill="#9DBC98"/><rect x="72.9" y="218.70000000000002" width="72.9" height="72.9" fill="#ffffff"/><rect x="72.9" y="218.7" width="36.45" height="36.45" fill="#9DBC98"/><path d="M 72.9 255.14999999999998 A 36.45 36.45 0 0 1  109.35000000000001 218.7 L 109.35000000000001 255.14999999999998" fill="#9DBC98"/><rect x="109.35" y="218.7" width="36.45" height="36.45" fill="#9DBC98"/><path d="M 109.35 218.7 A 36.45 36.45 0 0 1 145.8 255.14999999999998 L 109.35 255.14999999999998" fill="#9DBC98"/><rect x="72.9" y="255.15" width="36.45" height="36.45" fill="#EBD9B4"/><path d="M 72.9 255.15 A 36.45 36.45 0 0 0 109.35000000000001 291.6 L 109.35000000000001 255.15" fill="#EBD9B4"/><rect x="109.35" y="255.15" width="36.45" height="36.45" fill="#EBD9B4"/><path d="M 109.35 291.6 A 36.45 36.45 0 0 0 145.8 255.15 L 109.35 255.15" fill="#638889"/><rect x="145.8" y="218.70000000000002" width="72.9" height="72.9" fill="#ffffff"/><rect x="145.8" y="218.7" width="36.45" height="36.45" fill="#638889"/><polygon points="182.25,218.7 182.25,255.14999999999998 145.8,255.14999999999998" fill="#638889"/><rect x="182.25" y="218.7" width="36.45" height="36.45" fill="#F9EFDB"/><polygon points="182.25,218.7 218.7,218.7 182.25,255.14999999999998" fill="#638889"/><rect x="145.8" y="255.15" width="36.45" height="36.45" fill="#638889"/><polygon points="145.8,255.15 182.25,255.15 182.25,291.6" fill="#F9EFDB"/><rect x="182.25" y="255.15" width="36.45" height="36.45" fill="#F9EFDB"/><polygon points="182.25,255.15 218.7,291.6 182.25,291.6" fill="#638889"/><rect x="218.7" y="218.7" width="72.9" height="72.9" fill="#EBD9B4"/><rect x="218.7" y="218.7" width="72.9" height="72.9" fill="#9DBC98"/><rect x="291.6" y="218.70000000000002" width="72.9" height="72.9" fill="#ffffff"/><rect x="291.6" y="218.7" width="36.45" height="36.45" fill="#EBD9B4"/><polygon points="328.05,218.7 328.05,255.14999999999998 291.6,255.14999999999998" fill="#9DBC98"/><rect x="328.05" y="218.7" width="36.45" height="36.45" fill="#9DBC98"/><polygon points="328.05,218.7 364.5,218.7 328.05,255.14999999999998" fill="#EBD9B4"/><rect x="291.6" y="255.15" width="36.45" height="36.45" fill="#9DBC98"/><polygon points="291.6,255.15 328.05,255.15 328.05,291.6" fill="#638889"/><rect x="328.05" y="255.15" width="36.45" height="36.45" fill="#638889"/><polygon points="328.05,255.15 364.5,291.6 328.05,291.6" fill="#EBD9B4"/><rect x="364.5" y="218.7" width="72.9" height="72.9" fill="#EBD9B4"/><polygon points="364.5,218.7 437.4,291.6 364.5,291.6" fill="#EBD9B4"/><rect x="437.4" y="218.7" width="72.9" height="72.9" fill="#9DBC98"/><polygon points="437.4,218.7 510.29999999999995,218.7 437.4,291.6" fill="#9DBC98"/><rect x="510.3" y="218.7" width="72.9" height="72.9" fill="#9DBC98"/><path d="M 510.3 291.6 A 72.9 72.9 0 0 0 583.2 218.7 L 510.3 218.7" fill="#EBD9B4"/><rect x="583.2" y="218.70000000000002" width="72.9" height="72.9" fill="#ffffff"/><rect x="583.2" y="218.7" width="36.45" height="36.45" fill="#638889"/><polygon points="619.6500000000001,218.7 619.6500000000001,255.14999999999998 583.2,255.14999999999998" fill="#9DBC98"/><rect x="619.65" y="218.7" width="36.45" height="36.45" fill="#F9EFDB"/><polygon points="619.65,218.7 656.1,255.14999999999998 619.65,255.14999999999998" fill="#638889"/><rect x="583.2" y="255.15" width="36.45" height="36.45" fill="#F9EFDB"/><polygon points="583.2,255.15 619.6500000000001,255.15 583.2,291.6" fill="#638889"/><rect x="619.65" y="255.15" width="36.45" height="36.45" fill="#F9EFDB"/><polygon points="619.65,255.15 656.1,255.15 656.1,291.6" fill="#638889"/><rect x="656.1" y="218.70000000000002" width="72.9" height="72.9" fill="#ffffff"/><rect x="656.1" y="218.7" width="36.45" height="36.45" fill="#EBD9B4"/><path d="M 656.1 255.14999999999998 A 36.45 36.45 0 0 1 692.5500000000001 218.7 L 692.5500000000001 227.8125 A 27.337500000000002 27.337500000000002 0 0 0 665.2125 255.14999999999998" fill="#EBD9B4"/><rect x="692.55" y="218.7" width="36.45" height="36.45" fill="#638889"/><path d="M 692.55 218.7 A 36.45 36.45 0 0 1 729 255.14999999999998 L 719.8874999999999 255.14999999999998 A 27.337500000000002 27.337500000000002 0 0 0 692.55 227.8125" fill="#EBD9B4"/><rect x="656.1" y="255.15" width="36.45" height="36.45" fill="#638889"/><path d="M 656.1 255.15 A 36.45 36.45 0 0 0 692.5500000000001 291.6 L 692.5500000000001 282.4875 A 27.337500000000002 27.337500000000002 0 0 1 665.2125 255.15" fill="#9DBC98"/><rect x="692.55" y="255.15" width="36.45" height="36.45" fill="#638889"/><path d="M 692.55 291.6 A 36.45 36.45 0 0 0 729 255.15 L 719.8874999999999 255.15 A 27.337500000000002 27.337500000000002 0 0 1 692.55 282.4875" fill="#EBD9B4"/><rect x="729" y="218.7" width="72.9" height="72.9" fill="#F9EFDB"/><rect x="729" y="218.7" width="72.9" height="72.9" fill="#638889"/><rect x="801.9000000000001" y="218.70000000000002" width="72.9" height="72.9" fill="#ffffff"/><rect x="801.9" y="218.7" width="36.45" height="36.45" fill="#638889"/><path d="M 801.9 255.14999999999998 A 36.45 36.45 0 0 1  838.35 218.7 L 838.35 255.14999999999998" fill="#9DBC98"/><rect x="838.35" y="218.7" width="36.45" height="36.45" fill="#F9EFDB"/><path d="M 838.35 218.7 A 36.45 36.45 0 0 1 874.8000000000001 255.14999999999998 L 838.35 255.14999999999998" fill="#638889"/><rect x="801.9" y="255.15" width="36.45" height="36.45" fill="#F9EFDB"/><path d="M 801.9 255.15 A 36.45 36.45 0 0 0 838.35 291.6 L 838.35 255.15" fill="#638889"/><rect x="838.35" y="255.15" width="36.45" height="36.45" fill="#9DBC98"/><path d="M 838.35 291.6 A 36.45 36.45 0 0 0 874.8000000000001 255.15 L 838.35 255.15" fill="#F9EFDB"/><rect x="874.8000000000001" y="218.70000000000002" width="72.9" height="72.9" fill="#ffffff"/><rect x="874.8" y="218.7" width="36.45" height="36.45" fill="#EBD9B4"/><polygon points="911.25,218.7 911.25,255.14999999999998 874.8,255.14999999999998" fill="#9DBC98"/><rect x="911.25" y="218.7" width="36.45" height="36.45" fill="#EBD9B4"/><polygon points="911.25,218.7 947.7,255.14999999999998 911.25,255.14999999999998" fill="#F9EFDB"/><rect x="874.8" y="255.15" width="36.45" height="36.45" fill="#638889"/><polygon points="874.8,255.15 911.25,255.15 874.8,291.6" fill="#F9EFDB"/><rect x="911.25" y="255.15" width="36.45" height="36.45" fill="#EBD9B4"/><polygon points="911.25,255.15 947.7,255.15 947.7,291.6" fill="#EBD9B4"/><rect x="947.7" y="218.7" width="72.9" height="72.9" fill="#638889"/><rect x="947.7" y="218.7" width="72.9" height="72.9" fill="#F9EFDB"/><rect x="1020.6" y="218.7" width="72.9" height="72.9" fill="#9DBC98"/><polygon points="1020.6,218.7 1093.5,291.6 1020.6,291.6" fill="#9DBC98"/><rect x="1093.5" y="218.70000000000002" width="72.9" height="72.9" fill="#ffffff"/><rect x="1093.5" y="218.7" width="36.45" height="36.45" fill="#638889"/><polygon points="1129.95,218.7 1129.95,255.14999999999998 1093.5,255.14999999999998" fill="#9DBC98"/><rect x="1129.95" y="218.7" width="36.45" height="36.45" fill="#638889"/><polygon points="1129.95,218.7 1166.4,255.14999999999998 1129.95,255.14999999999998" fill="#638889"/><rect x="1093.5" y="255.15" width="36.45" height="36.45" fill="#9DBC98"/><polygon points="1093.5,255.15 1129.95,255.15 1093.5,291.6" fill="#638889"/><rect x="1129.95" y="255.15" width="36.45" height="36.45" fill="#EBD9B4"/><polygon points="1129.95,255.15 1166.4,255.15 1166.4,291.6" fill="#638889"/><rect x="0" y="291.6" width="72.9" height="72.9" fill="#ffffff"/><rect x="0" y="291.6" width="36.45" height="36.45" fill="#9DBC98"/><path d="M 0 328.05 A 36.45 36.45 0 0 1  36.45 291.6 L 36.45 328.05" fill="#638889"/><rect x="36.45" y="291.6" width="36.45" height="36.45" fill="#F9EFDB"/><path d="M 36.45 291.6 A 36.45 36.45 0 0 1 72.9 328.05 L 36.45 328.05" fill="#9DBC98"/><rect x="0" y="328.05" width="36.45" height="36.45" fill="#9DBC98"/><path d="M 0 328.05 A 36.45 36.45 0 0 0 36.45 364.5 L 36.45 328.05" fill="#F9EFDB"/><rect x="36.45" y="328.05" width="36.45" height="36.45" fill="#638889"/><path d="M 36.45 364.5 A 36.45 36.45 0 0 0 72.9 328.05 L 36.45 328.05" fill="#F9EFDB"/><rect x="72.9" y="291.6" width="72.9" height="72.9" fill="#ffffff"/><rect x="72.9" y="291.6" width="36.45" height="36.45" fill="#F9EFDB"/><polygon points="109.35000000000001,291.6 109.35000000000001,328.05 72.9,328.05" fill="#EBD9B4"/><rect x="109.35" y="291.6" width="36.45" height="36.45" fill="#F9EFDB"/><polygon points="109.35,291.6 145.8,328.05 109.35,328.05" fill="#F9EFDB"/><rect x="72.9" y="328.05" width="36.45" height="36.45" fill="#638889"/><polygon points="72.9,328.05 109.35000000000001,328.05 72.9,364.5" fill="#F9EFDB"/><rect x="109.35" y="328.05" width="36.45" height="36.45" fill="#638889"/><polygon points="109.35,328.05 145.8,328.05 145.8,364.5" fill="#F9EFDB"/><rect x="145.8" y="291.6" width="72.9" height="72.9" fill="#ffffff"/><rect x="145.8" y="291.6" width="36.45" height="36.45" fill="#F9EFDB"/><polygon points="182.25,291.6 182.25,328.05 145.8,328.05" fill="#EBD9B4"/><rect x="182.25" y="291.6" width="36.45" height="36.45" fill="#638889"/><polygon points="182.25,291.6 218.7,328.05 182.25,328.05" fill="#9DBC98"/><rect x="145.8" y="328.05" width="36.45" height="36.45" fill="#EBD9B4"/><polygon points="145.8,328.05 182.25,328.05 145.8,364.5" fill="#638889"/><rect x="182.25" y="328.05" width="36.45" height="36.45" fill="#EBD9B4"/><polygon points="182.25,328.05 218.7,328.05 218.7,364.5" fill="#EBD9B4"/><rect x="218.7" y="291.6" width="72.9" height="72.9" fill="#9DBC98"/><path d="M 218.7 364.5 A 72.9 72.9 0 0 1  291.6 291.6 L 218.7 364.5 A 72.9 72.9 0 0 0 291.6 291.6" fill="#9DBC98"/><rect x="291.6" y="291.6" width="72.9" height="72.9" fill="#EBD9B4"/><rect x="291.6" y="291.6" width="72.9" height="72.9" fill="#EBD9B4"/><rect x="364.5" y="291.6" width="72.9" height="72.9" fill="#F9EFDB"/><path d="M 364.5 364.5 A 72.9 72.9 0 0 1  437.4 291.6 L 364.5 364.5 A 72.9 72.9 0 0 0 437.4 291.6" fill="#638889"/><rect x="437.40000000000003" y="291.6" width="72.9" height="72.9" fill="#ffffff"/><rect x="437.4" y="291.6" width="36.45" height="36.45" fill="#EBD9B4"/><polygon points="473.84999999999997,291.6 473.84999999999997,328.05 437.4,328.05" fill="#EBD9B4"/><rect x="473.85" y="291.6" width="36.45" height="36.45" fill="#9DBC98"/><polygon points="473.85,291.6 510.3,328.05 473.85,328.05" fill="#9DBC98"/><rect x="437.4" y="328.05" width="36.45" height="36.45" fill="#638889"/><polygon points="437.4,328.05 473.84999999999997,328.05 473.84999999999997,364.5" fill="#EBD9B4"/><rect x="473.85" y="328.05" width="36.45" height="36.45" fill="#EBD9B4"/><polygon points="473.85,328.05 510.3,328.05 473.85,364.5" fill="#F9EFDB"/><rect x="510.3" y="291.6" width="72.9" height="72.9" fill="#638889"/><path d="M 510.3 364.5 A 72.9 72.9 0 0 0 583.2 291.6 L 510.3 291.6" fill="#EBD9B4"/><rect x="583.2" y="291.6" width="72.9" height="72.9" fill="#ffffff"/><rect x="583.2" y="291.6" width="36.45" height="36.45" fill="#EBD9B4"/><path d="M 583.2 328.05 A 36.45 36.45 0 0 1  619.6500000000001 291.6 L 619.6500000000001 328.05" fill="#EBD9B4"/><rect x="619.65" y="291.6" width="36.45" height="36.45" fill="#9DBC98"/><path d="M 619.65 291.6 A 36.45 36.45 0 0 1 656.1 328.05 L 619.65 328.05" fill="#9DBC98"/><rect x="583.2" y="328.05" width="36.45" height="36.45" fill="#EBD9B4"/><path d="M 583.2 328.05 A 36.45 36.45 0 0 0 619.6500000000001 364.5 L 619.6500000000001 328.05" fill="#638889"/><rect x="619.65" y="328.05" width="36.45" height="36.45" fill="#F9EFDB"/><path d="M 619.65 364.5 A 36.45 36.45 0 0 0 656.1 328.05 L 619.65 328.05" fill="#9DBC98"/><rect x="656.1" y="291.6" width="72.9" height="72.9" fill="#EBD9B4"/><polygon points="656.1,291.6 729,291.6 729,364.5" fill="#9DBC98"/><rect x="729" y="291.6" width="72.9" height="72.9" fill="#ffffff"/><rect x="729" y="291.6" width="36.45" height="36.45" fill="#638889"/><path d="M 729 291.6 A 36.45 36.45 0 0 0 765.45 328.05 L 765.45 291.6" fill="#638889"/><rect x="765.45" y="291.6" width="36.45" height="36.45" fill="#638889"/><path d="M 765.45 328.05 A 36.45 36.45 0 0 0 801.9000000000001 291.6 L 765.45 291.6" fill="#EBD9B4"/><rect x="729" y="328.05" width="36.45" height="36.45" fill="#9DBC98"/><path d="M 729 364.5 A 36.45 36.45 0 0 1  765.45 328.05 L 765.45 364.5" fill="#9DBC98"/><rect x="765.45" y="328.05" width="36.45" height="36.45" fill="#F9EFDB"/><path d="M 765.45 328.05 A 36.45 36.45 0 0 1 801.9000000000001 364.5 L 765.45 364.5" fill="#F9EFDB"/><rect x="801.9" y="291.6" width="72.9" height="72.9" fill="#F9EFDB"/><path d="M 801.9 291.6 A 72.9 72.9 0 0 1 874.8 364.5 L 801.9 364.5" fill="#638889"/><rect x="874.8" y="291.6" width="72.9" height="72.9" fill="#9DBC98"/><path d="M 874.8 291.6 A 72.9 72.9 0 0 1  947.6999999999999 364.5 L 874.8 291.6 A 72.9 72.9 0 0 0 947.6999999999999 364.5" fill="#F9EFDB"/><rect x="947.7" y="291.6" width="72.9" height="72.9" fill="#638889"/><rect x="947.7" y="291.6" width="72.9" height="72.9" fill="#EBD9B4"/><rect x="1020.6000000000001" y="291.6" width="72.9" height="72.9" fill="#ffffff"/><rect x="1020.6" y="291.6" width="36.45" height="36.45" fill="#9DBC98"/><polygon points="1057.05,291.6 1057.05,328.05 1020.6,328.05" fill="#638889"/><rect x="1057.05" y="291.6" width="36.45" height="36.45" fill="#638889"/><polygon points="1057.05,291.6 1093.5,328.05 1057.05,328.05" fill="#638889"/><rect x="1020.6" y="328.05" width="36.45" height="36.45" fill="#EBD9B4"/><polygon points="1020.6,328.05 1057.05,328.05 1057.05,364.5" fill="#9DBC98"/><rect x="1057.05" y="328.05" width="36.45" height="36.45" fill="#9DBC98"/><polygon points="1057.05,328.05 1093.5,328.05 1057.05,364.5" fill="#9DBC98"/><rect x="1093.5" y="291.6" width="72.9" height="72.9" fill="#ffffff"/><rect x="1093.5" y="291.6" width="36.45" height="36.45" fill="#9DBC98"/><polygon points="1129.95,291.6 1129.95,328.05 1093.5,328.05" fill="#638889"/><rect x="1129.95" y="291.6" width="36.45" height="36.45" fill="#F9EFDB"/><polygon points="1129.95,291.6 1166.4,328.05 1129.95,328.05" fill="#9DBC98"/><rect x="1093.5" y="328.05" width="36.45" height="36.45" fill="#EBD9B4"/><polygon points="1093.5,328.05 1129.95,328.05 1093.5,364.5" fill="#EBD9B4"/><rect x="1129.95" y="328.05" width="36.45" height="36.45" fill="#F9EFDB"/><polygon points="1129.95,328.05 1166.4,328.05 1166.4,364.5" fill="#F9EFDB"/><rect x="0" y="364.5" width="72.9" height="72.9" fill="#F9EFDB"/><polygon points="0,364.5 72.9,364.5 72.9,437.4" fill="#EBD9B4"/><rect x="72.9" y="364.5" width="72.9" height="72.9" fill="#ffffff"/><rect x="72.9" y="364.5" width="36.45" height="36.45" fill="#EBD9B4"/><path d="M 72.9 400.95 A 36.45 36.45 0 0 0 109.35000000000001 364.5 L 72.9 364.5" fill="#EBD9B4"/><rect x="109.35" y="364.5" width="36.45" height="36.45" fill="#F9EFDB"/><path d="M 109.35 364.5 A 36.45 36.45 0 0 0 145.8 400.95 L 145.8 364.5" fill="#638889"/><rect x="72.9" y="400.95" width="36.45" height="36.45" fill="#EBD9B4"/><path d="M 72.9 400.95 A 36.45 36.45 0 0 1 109.35000000000001 437.4 L 72.9 437.4" fill="#9DBC98"/><rect x="109.35" y="400.95" width="36.45" height="36.45" fill="#EBD9B4"/><path d="M 109.35 437.4 A 36.45 36.45 0 0 1  145.8 400.95 L 145.8 437.4" fill="#638889"/><rect x="145.8" y="364.5" width="72.9" height="72.9" fill="#638889"/><rect x="145.8" y="364.5" width="72.9" height="72.9" fill="#F9EFDB"/><rect x="218.70000000000002" y="364.5" width="72.9" height="72.9" fill="#ffffff"/><rect x="218.7" y="364.5" width="36.45" height="36.45" fill="#EBD9B4"/><polygon points="255.14999999999998,364.5 255.14999999999998,400.95 218.7,400.95" fill="#F9EFDB"/><rect x="255.15" y="364.5" width="36.45" height="36.45" fill="#9DBC98"/><polygon points="255.15,364.5 291.6,400.95 255.15,400.95" fill="#638889"/><rect x="218.7" y="400.95" width="36.45" height="36.45" fill="#9DBC98"/><polygon points="218.7,400.95 255.14999999999998,400.95 218.7,437.4" fill="#F9EFDB"/><rect x="255.15" y="400.95" width="36.45" height="36.45" fill="#638889"/><polygon points="255.15,400.95 291.6,400.95 291.6,437.4" fill="#EBD9B4"/><rect x="291.6" y="364.5" width="72.9" height="72.9" fill="#ffffff"/><rect x="291.6" y="364.5" width="36.45" height="36.45" fill="#EBD9B4"/><polygon points="328.05,364.5 328.05,400.95 291.6,400.95" fill="#EBD9B4"/><rect x="328.05" y="364.5" width="36.45" height="36.45" fill="#638889"/><polygon points="328.05,364.5 364.5,400.95 328.05,400.95" fill="#F9EFDB"/><rect x="291.6" y="400.95" width="36.45" height="36.45" fill="#9DBC98"/><polygon points="291.6,400.95 328.05,400.95 291.6,437.4" fill="#638889"/><rect x="328.05" y="400.95" width="36.45" height="36.45" fill="#9DBC98"/><polygon points="328.05,400.95 364.5,400.95 364.5,437.4" fill="#EBD9B4"/><rect x="364.5" y="364.5" width="72.9" height="72.9" fill="#9DBC98"/><path d="M 364.5 364.5 A 72.9 72.9 0 0 1  437.4 437.4 L 364.5 364.5 A 72.9 72.9 0 0 0 437.4 437.4" fill="#EBD9B4"/><rect x="437.40000000000003" y="364.5" width="72.9" height="72.9" fill="#ffffff"/><rect x="437.4" y="364.5" width="36.45" height="36.45" fill="#638889"/><polygon points="473.84999999999997,364.5 473.84999999999997,400.95 437.4,400.95" fill="#EBD9B4"/><rect x="473.85" y="364.5" width="36.45" height="36.45" fill="#9DBC98"/><polygon points="473.85,364.5 510.3,400.95 473.85,400.95" fill="#F9EFDB"/><rect x="437.4" y="400.95" width="36.45" height="36.45" fill="#F9EFDB"/><polygon points="437.4,400.95 473.84999999999997,400.95 437.4,437.4" fill="#EBD9B4"/><rect x="473.85" y="400.95" width="36.45" height="36.45" fill="#638889"/><polygon points="473.85,400.95 510.3,400.95 510.3,437.4" fill="#638889"/><rect x="510.3" y="364.5" width="72.9" height="72.9" fill="#9DBC98"/><path d="M 510.3 364.5 A 72.9 72.9 0 0 0 583.2 437.4 L 583.2 364.5" fill="#9DBC98"/><rect x="583.2" y="364.5" width="72.9" height="72.9" fill="#ffffff"/><rect x="583.2" y="364.5" width="36.45" height="36.45" fill="#9DBC98"/><path d="M 583.2 364.5 A 36.45 36.45 0 0 1 619.6500000000001 400.95 L 583.2 400.95" fill="#9DBC98"/><rect x="619.65" y="364.5" width="36.45" height="36.45" fill="#F9EFDB"/><path d="M 619.65 400.95 A 36.45 36.45 0 0 1  656.1 364.5 L 656.1 400.95" fill="#638889"/><rect x="583.2" y="400.95" width="36.45" height="36.45" fill="#638889"/><path d="M 583.2 437.4 A 36.45 36.45 0 0 0 619.6500000000001 400.95 L 583.2 400.95" fill="#638889"/><rect x="619.65" y="400.95" width="36.45" height="36.45" fill="#EBD9B4"/><path d="M 619.65 400.95 A 36.45 36.45 0 0 0 656.1 437.4 L 656.1 400.95" fill="#F9EFDB"/><rect x="656.1" y="364.5" width="72.9" height="72.9" fill="#ffffff"/><rect x="656.1" y="364.5" width="36.45" height="36.45" fill="#F9EFDB"/><polygon points="692.5500000000001,364.5 692.5500000000001,400.95 656.1,400.95" fill="#EBD9B4"/><rect x="692.55" y="364.5" width="36.45" height="36.45" fill="#F9EFDB"/><polygon points="692.55,364.5 729,364.5 692.55,400.95" fill="#9DBC98"/><rect x="656.1" y="400.95" width="36.45" height="36.45" fill="#638889"/><polygon points="656.1,400.95 692.5500000000001,400.95 692.5500000000001,437.4" fill="#9DBC98"/><rect x="692.55" y="400.95" width="36.45" height="36.45" fill="#EBD9B4"/><polygon points="692.55,400.95 729,437.4 692.55,437.4" fill="#F9EFDB"/><rect x="729" y="364.5" width="72.9" height="72.9" fill="#ffffff"/><rect x="729" y="364.5" width="36.45" height="36.45" fill="#9DBC98"/><circle cx="747.225" cy="382.725" r="18.225" fill="#638889"/><rect x="765.45" y="364.5" width="36.45" height="36.45" fill="#F9EFDB"/><rect x="765.45" y="364.5" width="36.45" height="36.45" fill="#EBD9B4"/><rect x="729" y="400.95" width="36.45" height="36.45" fill="#F9EFDB"/><circle cx="747.225" cy="419.175" r="18.225" fill="#9DBC98"/><rect x="765.45" y="400.95" width="36.45" height="36.45" fill="#638889"/><rect x="765.45" y="400.95" width="36.45" height="36.45" fill="#9DBC98"/><rect x="801.9" y="364.5" width="72.9" height="72.9" fill="#EBD9B4"/><rect x="801.9" y="364.5" width="72.9" height="72.9" fill="#9DBC98"/><rect x="874.8" y="364.5" width="72.9" height="72.9" fill="#638889"/><rect x="874.8" y="364.5" width="72.9" height="72.9" fill="#EBD9B4"/><rect x="947.7" y="364.5" width="72.9" height="72.9" fill="#9DBC98"/><polygon points="947.7,364.5 1020.6,364.5 947.7,437.4" fill="#9DBC98"/><rect x="1020.6" y="364.5" width="72.9" height="72.9" fill="#638889"/><path d="M 1020.6 437.4 A 72.9 72.9 0 0 0 1093.5 364.5 L 1020.6 364.5" fill="#EBD9B4"/><rect x="1093.5" y="364.5" width="72.9" height="72.9" fill="#EBD9B4"/><polygon points="1093.5,364.5 1166.4,364.5 1166.4,437.4" fill="#EBD9B4"/><rect x="0" y="437.40000000000003" width="72.9" height="72.9" fill="#ffffff"/><rect x="0" y="437.4" width="36.45" height="36.45" fill="#638889"/><path d="M 0 437.4 A 36.45 36.45 0 0 0 36.45 473.84999999999997 L 36.45 437.4" fill="#638889"/><rect x="36.45" y="437.4" width="36.45" height="36.45" fill="#F9EFDB"/><path d="M 36.45 473.84999999999997 A 36.45 36.45 0 0 0 72.9 437.4 L 36.45 437.4" fill="#9DBC98"/><rect x="0" y="473.85" width="36.45" height="36.45" fill="#F9EFDB"/><path d="M 0 510.3 A 36.45 36.45 0 0 1  36.45 473.85 L 36.45 510.3" fill="#9DBC98"/><rect x="36.45" y="473.85" width="36.45" height="36.45" fill="#9DBC98"/><path d="M 36.45 473.85 A 36.45 36.45 0 0 1 72.9 510.3 L 36.45 510.3" fill="#EBD9B4"/><rect x="72.9" y="437.40000000000003" width="72.9" height="72.9" fill="#ffffff"/><rect x="72.9" y="437.4" width="36.45" height="36.45" fill="#638889"/><path d="M 72.9 437.4 A 36.45 36.45 0 0 0 109.35000000000001 473.84999999999997 L 109.35000000000001 437.4" fill="#EBD9B4"/><rect x="109.35" y="437.4" width="36.45" height="36.45" fill="#EBD9B4"/><path d="M 109.35 473.84999999999997 A 36.45 36.45 0 0 0 145.8 437.4 L 109.35 437.4" fill="#9DBC98"/><rect x="72.9" y="473.85" width="36.45" height="36.45" fill="#EBD9B4"/><path d="M 72.9 510.3 A 36.45 36.45 0 0 1  109.35000000000001 473.85 L 109.35000000000001 510.3" fill="#638889"/><rect x="109.35" y="473.85" width="36.45" height="36.45" fill="#9DBC98"/><path d="M 109.35 473.85 A 36.45 36.45 0 0 1 145.8 510.3 L 109.35 510.3" fill="#638889"/><rect x="145.8" y="437.4" width="72.9" height="72.9" fill="#638889"/><rect x="145.8" y="437.4" width="72.9" height="72.9" fill="#638889"/><rect x="218.70000000000002" y="437.40000000000003" width="72.9" height="72.9" fill="#ffffff"/><rect x="218.7" y="437.4" width="36.45" height="36.45" fill="#F9EFDB"/><polygon points="255.14999999999998,437.4 255.14999999999998,473.84999999999997 218.7,473.84999999999997" fill="#638889"/><rect x="255.15" y="437.4" width="36.45" height="36.45" fill="#638889"/><polygon points="255.15,437.4 291.6,437.4 255.15,473.84999999999997" fill="#638889"/><rect x="218.7" y="473.85" width="36.45" height="36.45" fill="#9DBC98"/><polygon points="218.7,473.85 255.14999999999998,473.85 255.14999999999998,510.3" fill="#F9EFDB"/><rect x="255.15" y="473.85" width="36.45" height="36.45" fill="#638889"/><polygon points="255.15,473.85 291.6,510.3 255.15,510.3" fill="#EBD9B4"/><rect x="291.6" y="437.4" width="72.9" height="72.9" fill="#F9EFDB"/><rect x="291.6" y="437.4" width="72.9" height="72.9" fill="#EBD9B4"/><rect x="364.5" y="437.40000000000003" width="72.9" height="72.9" fill="#ffffff"/><rect x="364.5" y="437.4" width="36.45" height="36.45" fill="#9DBC98"/><polygon points="400.95,437.4 400.95,473.84999999999997 364.5,473.84999999999997" fill="#F9EFDB"/><rect x="400.95" y="437.4" width="36.45" height="36.45" fill="#EBD9B4"/><polygon points="400.95,437.4 437.4,437.4 400.95,473.84999999999997" fill="#638889"/><rect x="364.5" y="473.85" width="36.45" height="36.45" fill="#EBD9B4"/><polygon points="364.5,473.85 400.95,473.85 400.95,510.3" fill="#EBD9B4"/><rect x="400.95" y="473.85" width="36.45" height="36.45" fill="#F9EFDB"/><polygon points="400.95,473.85 437.4,510.3 400.95,510.3" fill="#EBD9B4"/><rect x="437.40000000000003" y="437.40000000000003" width="72.9" height="72.9" fill="#ffffff"/><rect x="437.4" y="437.4" width="36.45" height="36.45" fill="#EBD9B4"/><polygon points="473.84999999999997,437.4 473.84999999999997,473.84999999999997 437.4,473.84999999999997" fill="#EBD9B4"/><rect x="473.85" y="437.4" width="36.45" height="36.45" fill="#EBD9B4"/><polygon points="473.85,437.4 510.3,473.84999999999997 473.85,473.84999999999997" fill="#9DBC98"/><rect x="437.4" y="473.85" width="36.45" height="36.45" fill="#F9EFDB"/><polygon points="437.4,473.85 473.84999999999997,473.85 473.84999999999997,510.3" fill="#F9EFDB"/><rect x="473.85" y="473.85" width="36.45" height="36.45" fill="#638889"/><polygon points="473.85,473.85 510.3,473.85 473.85,510.3" fill="#9DBC98"/><rect x="510.30000000000007" y="437.40000000000003" width="72.9" height="72.9" fill="#ffffff"/><rect x="510.3" y="437.4" width="36.45" height="36.45" fill="#EBD9B4"/><path d="M 510.3 473.84999999999997 A 36.45 36.45 0 0 1 546.75 437.4 L 546.75 446.5125 A 27.337500000000002 27.337500000000002 0 0 0 519.4125 473.84999999999997" fill="#9DBC98"/><rect x="546.75" y="437.4" width="36.45" height="36.45" fill="#F9EFDB"/><path d="M 546.75 437.4 A 36.45 36.45 0 0 1 583.2 473.84999999999997 L 574.0875 473.84999999999997 A 27.337500000000002 27.337500000000002 0 0 0 546.75 446.5125" fill="#9DBC98"/><rect x="510.3" y="473.85" width="36.45" height="36.45" fill="#638889"/><path d="M 510.3 473.85 A 36.45 36.45 0 0 0 546.75 510.3 L 546.75 501.1875 A 27.337500000000002 27.337500000000002 0 0 1 519.4125 473.85" fill="#9DBC98"/><rect x="546.75" y="473.85" width="36.45" height="36.45" fill="#EBD9B4"/><path d="M 546.75 510.3 A 36.45 36.45 0 0 0 583.2 473.85 L 574.0875 473.85 A 27.337500000000002 27.337500000000002 0 0 1 546.75 501.1875" fill="#EBD9B4"/><rect x="583.2" y="437.40000000000003" width="72.9" height="72.9" fill="#ffffff"/><rect x="583.2" y="437.4" width="36.45" height="36.45" fill="#638889"/><path d="M 583.2 437.4 A 36.45 36.45 0 0 1 619.6500000000001 473.84999999999997 L 583.2 473.84999999999997" fill="#EBD9B4"/><rect x="619.65" y="437.4" width="36.45" height="36.45" fill="#9DBC98"/><path d="M 619.65 473.84999999999997 A 36.45 36.45 0 0 1  656.1 437.4 L 656.1 473.84999999999997" fill="#F9EFDB"/><rect x="583.2" y="473.85" width="36.45" height="36.45" fill="#638889"/><path d="M 583.2 510.3 A 36.45 36.45 0 0 0 619.6500000000001 473.85 L 583.2 473.85" fill="#9DBC98"/><rect x="619.65" y="473.85" width="36.45" height="36.45" fill="#9DBC98"/><path d="M 619.65 473.85 A 36.45 36.45 0 0 0 656.1 510.3 L 656.1 473.85" fill="#EBD9B4"/><rect x="656.1" y="437.4" width="72.9" height="72.9" fill="#638889"/><rect x="656.1" y="437.4" width="72.9" height="72.9" fill="#F9EFDB"/><rect x="729" y="437.40000000000003" width="72.9" height="72.9" fill="#ffffff"/><rect x="729" y="437.4" width="36.45" height="36.45" fill="#EBD9B4"/><path d="M 729 473.84999999999997 A 36.45 36.45 0 0 0 765.45 437.4 L 729 437.4" fill="#F9EFDB"/><rect x="765.45" y="437.4" width="36.45" height="36.45" fill="#638889"/><path d="M 765.45 437.4 A 36.45 36.45 0 0 0 801.9000000000001 473.84999999999997 L 801.9000000000001 437.4" fill="#F9EFDB"/><rect x="729" y="473.85" width="36.45" height="36.45" fill="#9DBC98"/><path d="M 729 473.85 A 36.45 36.45 0 0 1 765.45 510.3 L 729 510.3" fill="#EBD9B4"/><rect x="765.45" y="473.85" width="36.45" height="36.45" fill="#EBD9B4"/><path d="M 765.45 510.3 A 36.45 36.45 0 0 1  801.9000000000001 473.85 L 801.9000000000001 510.3" fill="#638889"/><rect x="801.9000000000001" y="437.40000000000003" width="72.9" height="72.9" fill="#ffffff"/><rect x="801.9" y="437.4" width="36.45" height="36.45" fill="#638889"/><path d="M 801.9 473.84999999999997 A 36.45 36.45 0 0 1 838.35 437.4 L 838.35 446.5125 A 27.337500000000002 27.337500000000002 0 0 0 811.0124999999999 473.84999999999997" fill="#9DBC98"/><rect x="838.35" y="437.4" width="36.45" height="36.45" fill="#F9EFDB"/><path d="M 838.35 437.4 A 36.45 36.45 0 0 1 874.8000000000001 473.84999999999997 L 865.6875 473.84999999999997 A 27.337500000000002 27.337500000000002 0 0 0 838.35 446.5125" fill="#EBD9B4"/><rect x="801.9" y="473.85" width="36.45" height="36.45" fill="#EBD9B4"/><path d="M 801.9 473.85 A 36.45 36.45 0 0 0 838.35 510.3 L 838.35 501.1875 A 27.337500000000002 27.337500000000002 0 0 1 811.0124999999999 473.85" fill="#9DBC98"/><rect x="838.35" y="473.85" width="36.45" height="36.45" fill="#EBD9B4"/><path d="M 838.35 510.3 A 36.45 36.45 0 0 0 874.8000000000001 473.85 L 865.6875 473.85 A 27.337500000000002 27.337500000000002 0 0 1 838.35 501.1875" fill="#F9EFDB"/><rect x="874.8000000000001" y="437.40000000000003" width="72.9" height="72.9" fill="#ffffff"/><rect x="874.8" y="437.4" width="36.45" height="36.45" fill="#F9EFDB"/><path d="M 874.8 437.4 A 36.45 36.45 0 0 1 911.25 473.84999999999997 L 874.8 473.84999999999997" fill="#9DBC98"/><rect x="911.25" y="437.4" width="36.45" height="36.45" fill="#F9EFDB"/><path d="M 911.25 473.84999999999997 A 36.45 36.45 0 0 1  947.7 437.4 L 947.7 473.84999999999997" fill="#F9EFDB"/><rect x="874.8" y="473.85" width="36.45" height="36.45" fill="#F9EFDB"/><path d="M 874.8 510.3 A 36.45 36.45 0 0 0 911.25 473.85 L 874.8 473.85" fill="#638889"/><rect x="911.25" y="473.85" width="36.45" height="36.45" fill="#638889"/><path d="M 911.25 473.85 A 36.45 36.45 0 0 0 947.7 510.3 L 947.7 473.85" fill="#638889"/><rect x="947.7" y="437.40000000000003" width="72.9" height="72.9" fill="#ffffff"/><rect x="947.7" y="437.4" width="36.45" height="36.45" fill="#F9EFDB"/><path d="M 947.7 437.4 A 36.45 36.45 0 0 1 984.1500000000001 473.84999999999997 L 947.7 473.84999999999997" fill="#9DBC98"/><rect x="984.15" y="437.4" width="36.45" height="36.45" fill="#F9EFDB"/><path d="M 984.15 473.84999999999997 A 36.45 36.45 0 0 1  1020.6 437.4 L 1020.6 473.84999999999997" fill="#638889"/><rect x="947.7" y="473.85" width="36.45" height="36.45" fill="#638889"/><path d="M 947.7 510.3 A 36.45 36.45 0 0 0 984.1500000000001 473.85 L 947.7 473.85" fill="#638889"/><rect x="984.15" y="473.85" width="36.45" height="36.45" fill="#9DBC98"/><path d="M 984.15 473.85 A 36.45 36.45 0 0 0 1020.6 510.3 L 1020.6 473.85" fill="#638889"/><rect x="1020.6" y="437.4" width="72.9" height="72.9" fill="#F9EFDB"/><rect x="1020.6" y="437.4" width="72.9" height="72.9" fill="#638889"/><rect x="1093.5" y="437.40000000000003" width="72.9" height="72.9" fill="#ffffff"/><rect x="1093.5" y="437.4" width="36.45" height="36.45" fill="#9DBC98"/><path d="M 1093.5 437.4 A 36.45 36.45 0 0 0 1129.95 473.84999999999997 L 1129.95 437.4" fill="#F9EFDB"/><rect x="1129.95" y="437.4" width="36.45" height="36.45" fill="#EBD9B4"/><path d="M 1129.95 473.84999999999997 A 36.45 36.45 0 0 0 1166.4 437.4 L 1129.95 437.4" fill="#9DBC98"/><rect x="1093.5" y="473.85" width="36.45" height="36.45" fill="#F9EFDB"/><path d="M 1093.5 510.3 A 36.45 36.45 0 0 1  1129.95 473.85 L 1129.95 510.3" fill="#9DBC98"/><rect x="1129.95" y="473.85" width="36.45" height="36.45" fill="#EBD9B4"/><path d="M 1129.95 473.85 A 36.45 36.45 0 0 1 1166.4 510.3 L 1129.95 510.3" fill="#EBD9B4"/><rect x="0" y="510.30000000000007" width="72.9" height="72.9" fill="#ffffff"/><rect x="0" y="510.3" width="36.45" height="36.45" fill="#F9EFDB"/><path d="M 0 510.3 A 36.45 36.45 0 0 0 36.45 546.75 L 36.45 510.3" fill="#F9EFDB"/><rect x="36.45" y="510.3" width="36.45" height="36.45" fill="#F9EFDB"/><path d="M 36.45 546.75 A 36.45 36.45 0 0 0 72.9 510.3 L 36.45 510.3" fill="#F9EFDB"/><rect x="0" y="546.75" width="36.45" height="36.45" fill="#638889"/><path d="M 0 583.2 A 36.45 36.45 0 0 1  36.45 546.75 L 36.45 583.2" fill="#EBD9B4"/><rect x="36.45" y="546.75" width="36.45" height="36.45" fill="#EBD9B4"/><path d="M 36.45 546.75 A 36.45 36.45 0 0 1 72.9 583.2 L 36.45 583.2" fill="#638889"/><rect x="72.9" y="510.30000000000007" width="72.9" height="72.9" fill="#ffffff"/><rect x="72.9" y="510.3" width="36.45" height="36.45" fill="#638889"/><path d="M 72.9 510.3 A 36.45 36.45 0 0 0 109.35000000000001 546.75 L 109.35000000000001 510.3" fill="#EBD9B4"/><rect x="109.35" y="510.3" width="36.45" height="36.45" fill="#638889"/><path d="M 109.35 546.75 A 36.45 36.45 0 0 0 145.8 510.3 L 109.35 510.3" fill="#9DBC98"/><rect x="72.9" y="546.75" width="36.45" height="36.45" fill="#EBD9B4"/><path d="M 72.9 583.2 A 36.45 36.45 0 0 1  109.35000000000001 546.75 L 109.35000000000001 583.2" fill="#9DBC98"/><rect x="109.35" y="546.75" width="36.45" height="36.45" fill="#9DBC98"/><path d="M 109.35 546.75 A 36.45 36.45 0 0 1 145.8 583.2 L 109.35 583.2" fill="#638889"/><rect x="145.8" y="510.30000000000007" width="72.9" height="72.9" fill="#ffffff"/><rect x="145.8" y="510.3" width="36.45" height="36.45" fill="#638889"/><circle cx="164.025" cy="528.525" r="18.225" fill="#F9EFDB"/><rect x="182.25" y="510.3" width="36.45" height="36.45" fill="#638889"/><rect x="182.25" y="510.3" width="36.45" height="36.45" fill="#9DBC98"/><rect x="145.8" y="546.75" width="36.45" height="36.45" fill="#F9EFDB"/><circle cx="164.025" cy="564.975" r="18.225" fill="#EBD9B4"/><rect x="182.25" y="546.75" width="36.45" height="36.45" fill="#F9EFDB"/><rect x="182.25" y="546.75" width="36.45" height="36.45" fill="#EBD9B4"/><rect x="218.70000000000002" y="510.30000000000007" width="72.9" height="72.9" fill="#ffffff"/><rect x="218.7" y="510.3" width="36.45" height="36.45" fill="#638889"/><path d="M 218.7 546.75 A 36.45 36.45 0 0 1  255.14999999999998 510.3 L 255.14999999999998 546.75" fill="#638889"/><rect x="255.15" y="510.3" width="36.45" height="36.45" fill="#638889"/><path d="M 255.15 510.3 A 36.45 36.45 0 0 1 291.6 546.75 L 255.15 546.75" fill="#F9EFDB"/><rect x="218.7" y="546.75" width="36.45" height="36.45" fill="#F9EFDB"/><path d="M 218.7 546.75 A 36.45 36.45 0 0 0 255.14999999999998 583.2 L 255.14999999999998 546.75" fill="#638889"/><rect x="255.15" y="546.75" width="36.45" height="36.45" fill="#9DBC98"/><path d="M 255.15 583.2 A 36.45 36.45 0 0 0 291.6 546.75 L 255.15 546.75" fill="#9DBC98"/><rect x="291.6" y="510.3" width="72.9" height="72.9" fill="#F9EFDB"/><polygon points="291.6,510.3 364.5,510.3 291.6,583.2" fill="#EBD9B4"/><rect x="364.5" y="510.3" width="72.9" height="72.9" fill="#9DBC98"/><polygon points="437.4,510.3 437.4,583.2 364.5,583.2" fill="#F9EFDB"/><rect x="437.4" y="510.3" width="72.9" height="72.9" fill="#9DBC98"/><path d="M 437.4 583.2 A 72.9 72.9 0 0 0 510.29999999999995 510.3 L 437.4 510.3" fill="#EBD9B4"/><rect x="510.30000000000007" y="510.30000000000007" width="72.9" height="72.9" fill="#ffffff"/><rect x="510.3" y="510.3" width="36.45" height="36.45" fill="#638889"/><path d="M 510.3 546.75 A 36.45 36.45 0 0 1 546.75 510.3 L 546.75 519.4125 A 27.337500000000002 27.337500000000002 0 0 0 519.4125 546.75" fill="#F9EFDB"/><rect x="546.75" y="510.3" width="36.45" height="36.45" fill="#638889"/><path d="M 546.75 510.3 A 36.45 36.45 0 0 1 583.2 546.75 L 574.0875 546.75 A 27.337500000000002 27.337500000000002 0 0 0 546.75 519.4125" fill="#EBD9B4"/><rect x="510.3" y="546.75" width="36.45" height="36.45" fill="#9DBC98"/><path d="M 510.3 546.75 A 36.45 36.45 0 0 0 546.75 583.2 L 546.75 574.0875 A 27.337500000000002 27.337500000000002 0 0 1 519.4125 546.75" fill="#638889"/><rect x="546.75" y="546.75" width="36.45" height="36.45" fill="#EBD9B4"/><path d="M 546.75 583.2 A 36.45 36.45 0 0 0 583.2 546.75 L 574.0875 546.75 A 27.337500000000002 27.337500000000002 0 0 1 546.75 574.0875" fill="#EBD9B4"/><rect x="583.2" y="510.30000000000007" width="72.9" height="72.9" fill="#ffffff"/><rect x="583.2" y="510.3" width="36.45" height="36.45" fill="#F9EFDB"/><path d="M 583.2 510.3 A 36.45 36.45 0 0 1 619.6500000000001 546.75 L 583.2 546.75" fill="#F9EFDB"/><rect x="619.65" y="510.3" width="36.45" height="36.45" fill="#EBD9B4"/><path d="M 619.65 546.75 A 36.45 36.45 0 0 1  656.1 510.3 L 656.1 546.75" fill="#638889"/><rect x="583.2" y="546.75" width="36.45" height="36.45" fill="#EBD9B4"/><path d="M 583.2 583.2 A 36.45 36.45 0 0 0 619.6500000000001 546.75 L 583.2 546.75" fill="#F9EFDB"/><rect x="619.65" y="546.75" width="36.45" height="36.45" fill="#638889"/><path d="M 619.65 546.75 A 36.45 36.45 0 0 0 656.1 583.2 L 656.1 546.75" fill="#EBD9B4"/><rect x="656.1" y="510.3" width="72.9" height="72.9" fill="#EBD9B4"/><polygon points="656.1,510.3 729,583.2 656.1,583.2" fill="#EBD9B4"/><rect x="729" y="510.30000000000007" width="72.9" height="72.9" fill="#ffffff"/><rect x="729" y="510.3" width="36.45" height="36.45" fill="#EBD9B4"/><path d="M 729 546.75 A 36.45 36.45 0 0 0 765.45 510.3 L 729 510.3" fill="#F9EFDB"/><rect x="765.45" y="510.3" width="36.45" height="36.45" fill="#F9EFDB"/><path d="M 765.45 510.3 A 36.45 36.45 0 0 0 801.9000000000001 546.75 L 801.9000000000001 510.3" fill="#638889"/><rect x="729" y="546.75" width="36.45" height="36.45" fill="#EBD9B4"/><path d="M 729 546.75 A 36.45 36.45 0 0 1 765.45 583.2 L 729 583.2" fill="#F9EFDB"/><rect x="765.45" y="546.75" width="36.45" height="36.45" fill="#638889"/><path d="M 765.45 583.2 A 36.45 36.45 0 0 1  801.9000000000001 546.75 L 801.9000000000001 583.2" fill="#F9EFDB"/><rect x="801.9000000000001" y="510.30000000000007" width="72.9" height="72.9" fill="#ffffff"/><rect x="801.9" y="510.3" width="36.45" height="36.45" fill="#638889"/><path d="M 801.9 546.75 A 36.45 36.45 0 0 1 838.35 510.3 L 838.35 519.4125 A 27.337500000000002 27.337500000000002 0 0 0 811.0124999999999 546.75" fill="#F9EFDB"/><rect x="838.35" y="510.3" width="36.45" height="36.45" fill="#638889"/><path d="M 838.35 510.3 A 36.45 36.45 0 0 1 874.8000000000001 546.75 L 865.6875 546.75 A 27.337500000000002 27.337500000000002 0 0 0 838.35 519.4125" fill="#9DBC98"/><rect x="801.9" y="546.75" width="36.45" height="36.45" fill="#9DBC98"/><path d="M 801.9 546.75 A 36.45 36.45 0 0 0 838.35 583.2 L 838.35 574.0875 A 27.337500000000002 27.337500000000002 0 0 1 811.0124999999999 546.75" fill="#638889"/><rect x="838.35" y="546.75" width="36.45" height="36.45" fill="#F9EFDB"/><path d="M 838.35 583.2 A 36.45 36.45 0 0 0 874.8000000000001 546.75 L 865.6875 546.75 A 27.337500000000002 27.337500000000002 0 0 1 838.35 574.0875" fill="#9DBC98"/><rect x="874.8000000000001" y="510.30000000000007" width="72.9" height="72.9" fill="#ffffff"/><rect x="874.8" y="510.3" width="36.45" height="36.45" fill="#EBD9B4"/><polygon points="911.25,510.3 911.25,546.75 874.8,546.75" fill="#638889"/><rect x="911.25" y="510.3" width="36.45" height="36.45" fill="#F9EFDB"/><polygon points="911.25,510.3 947.7,546.75 911.25,546.75" fill="#9DBC98"/><rect x="874.8" y="546.75" width="36.45" height="36.45" fill="#638889"/><polygon points="874.8,546.75 911.25,546.75 874.8,583.2" fill="#638889"/><rect x="911.25" y="546.75" width="36.45" height="36.45" fill="#EBD9B4"/><polygon points="911.25,546.75 947.7,546.75 947.7,583.2" fill="#F9EFDB"/><rect x="947.7" y="510.3" width="72.9" height="72.9" fill="#638889"/><path d="M 947.7 510.3 A 72.9 72.9 0 0 1  1020.6 583.2 L 947.7 510.3 A 72.9 72.9 0 0 0 1020.6 583.2" fill="#F9EFDB"/><rect x="1020.6000000000001" y="510.30000000000007" width="72.9" height="72.9" fill="#ffffff"/><rect x="1020.6" y="510.3" width="36.45" height="36.45" fill="#9DBC98"/><path d="M 1020.6 510.3 A 36.45 36.45 0 0 0 1057.05 546.75 L 1057.05 510.3" fill="#EBD9B4"/><rect x="1057.05" y="510.3" width="36.45" height="36.45" fill="#9DBC98"/><path d="M 1057.05 546.75 A 36.45 36.45 0 0 0 1093.5 510.3 L 1057.05 510.3" fill="#F9EFDB"/><rect x="1020.6" y="546.75" width="36.45" height="36.45" fill="#F9EFDB"/><path d="M 1020.6 583.2 A 36.45 36.45 0 0 1  1057.05 546.75 L 1057.05 583.2" fill="#9DBC98"/><rect x="1057.05" y="546.75" width="36.45" height="36.45" fill="#9DBC98"/><path d="M 1057.05 546.75 A 36.45 36.45 0 0 1 1093.5 583.2 L 1057.05 583.2" fill="#9DBC98"/><rect x="1093.5" y="510.3" width="72.9" height="72.9" fill="#9DBC98"/><path d="M 1093.5 583.2 A 72.9 72.9 0 0 0 1166.4 510.3 L 1093.5 510.3" fill="#EBD9B4"/><rect x="0" y="583.2" width="72.9" height="72.9" fill="#F9EFDB"/><rect x="0" y="583.2" width="72.9" height="72.9" fill="#9DBC98"/><rect x="72.9" y="583.2" width="72.9" height="72.9" fill="#EBD9B4"/><rect x="72.9" y="583.2" width="72.9" height="72.9" fill="#638889"/><rect x="145.8" y="583.2" width="72.9" height="72.9" fill="#ffffff"/><rect x="145.8" y="583.2" width="36.45" height="36.45" fill="#638889"/><polygon points="182.25,583.2 182.25,619.6500000000001 145.8,619.6500000000001" fill="#9DBC98"/><rect x="182.25" y="583.2" width="36.45" height="36.45" fill="#638889"/><polygon points="182.25,583.2 218.7,619.6500000000001 182.25,619.6500000000001" fill="#638889"/><rect x="145.8" y="619.65" width="36.45" height="36.45" fill="#EBD9B4"/><polygon points="145.8,619.65 182.25,619.65 182.25,656.1" fill="#F9EFDB"/><rect x="182.25" y="619.65" width="36.45" height="36.45" fill="#EBD9B4"/><polygon points="182.25,619.65 218.7,619.65 182.25,656.1" fill="#9DBC98"/><rect x="218.7" y="583.2" width="72.9" height="72.9" fill="#F9EFDB"/><rect x="218.7" y="583.2" width="72.9" height="72.9" fill="#9DBC98"/><rect x="291.6" y="583.2" width="72.9" height="72.9" fill="#ffffff"/><rect x="291.6" y="583.2" width="36.45" height="36.45" fill="#EBD9B4"/><path d="M 291.6 583.2 A 36.45 36.45 0 0 0 328.05 619.6500000000001 L 328.05 583.2" fill="#638889"/><rect x="328.05" y="583.2" width="36.45" height="36.45" fill="#EBD9B4"/><path d="M 328.05 619.6500000000001 A 36.45 36.45 0 0 0 364.5 583.2 L 328.05 583.2" fill="#9DBC98"/><rect x="291.6" y="619.65" width="36.45" height="36.45" fill="#EBD9B4"/><path d="M 291.6 656.1 A 36.45 36.45 0 0 1  328.05 619.65 L 328.05 656.1" fill="#EBD9B4"/><rect x="328.05" y="619.65" width="36.45" height="36.45" fill="#EBD9B4"/><path d="M 328.05 619.65 A 36.45 36.45 0 0 1 364.5 656.1 L 328.05 656.1" fill="#EBD9B4"/><rect x="364.5" y="583.2" width="72.9" height="72.9" fill="#638889"/><polygon points="364.5,583.2 437.4,656.1 364.5,656.1" fill="#F9EFDB"/><rect x="437.4" y="583.2" width="72.9" height="72.9" fill="#F9EFDB"/><polygon points="510.29999999999995,583.2 510.29999999999995,656.1 437.4,656.1" fill="#638889"/><rect x="510.30000000000007" y="583.2" width="72.9" height="72.9" fill="#ffffff"/><rect x="510.3" y="583.2" width="36.45" height="36.45" fill="#9DBC98"/><polygon points="546.75,583.2 546.75,619.6500000000001 510.3,619.6500000000001" fill="#9DBC98"/><rect x="546.75" y="583.2" width="36.45" height="36.45" fill="#EBD9B4"/><polygon points="546.75,583.2 583.2,619.6500000000001 546.75,619.6500000000001" fill="#EBD9B4"/><rect x="510.3" y="619.65" width="36.45" height="36.45" fill="#EBD9B4"/><polygon points="510.3,619.65 546.75,619.65 510.3,656.1" fill="#638889"/><rect x="546.75" y="619.65" width="36.45" height="36.45" fill="#EBD9B4"/><polygon points="546.75,619.65 583.2,619.65 583.2,656.1" fill="#F9EFDB"/><rect x="583.2" y="583.2" width="72.9" height="72.9" fill="#ffffff"/><rect x="583.2" y="583.2" width="36.45" height="36.45" fill="#F9EFDB"/><polygon points="619.6500000000001,583.2 619.6500000000001,619.6500000000001 583.2,619.6500000000001" fill="#F9EFDB"/><rect x="619.65" y="583.2" width="36.45" height="36.45" fill="#9DBC98"/><polygon points="619.65,583.2 656.1,583.2 619.65,619.6500000000001" fill="#F9EFDB"/><rect x="583.2" y="619.65" width="36.45" height="36.45" fill="#F9EFDB"/><polygon points="583.2,619.65 619.6500000000001,619.65 619.6500000000001,656.1" fill="#638889"/><rect x="619.65" y="619.65" width="36.45" height="36.45" fill="#EBD9B4"/><polygon points="619.65,619.65 656.1,656.1 619.65,656.1" fill="#EBD9B4"/><rect x="656.1" y="583.2" width="72.9" height="72.9" fill="#638889"/><rect x="656.1" y="583.2" width="72.9" height="72.9" fill="#F9EFDB"/><rect x="729" y="583.2" width="72.9" height="72.9" fill="#ffffff"/><rect x="729" y="583.2" width="36.45" height="36.45" fill="#EBD9B4"/><path d="M 729 619.6500000000001 A 36.45 36.45 0 0 0 765.45 583.2 L 729 583.2" fill="#638889"/><rect x="765.45" y="583.2" width="36.45" height="36.45" fill="#638889"/><path d="M 765.45 583.2 A 36.45 36.45 0 0 0 801.9000000000001 619.6500000000001 L 801.9000000000001 583.2" fill="#9DBC98"/><rect x="729" y="619.65" width="36.45" height="36.45" fill="#638889"/><path d="M 729 619.65 A 36.45 36.45 0 0 1 765.45 656.1 L 729 656.1" fill="#9DBC98"/><rect x="765.45" y="619.65" width="36.45" height="36.45" fill="#638889"/><path d="M 765.45 656.1 A 36.45 36.45 0 0 1  801.9000000000001 619.65 L 801.9000000000001 656.1" fill="#EBD9B4"/><rect x="801.9" y="583.2" width="72.9" height="72.9" fill="#638889"/><path d="M 801.9 656.1 A 72.9 72.9 0 0 0 874.8 583.2 L 801.9 583.2" fill="#F9EFDB"/><rect x="874.8000000000001" y="583.2" width="72.9" height="72.9" fill="#ffffff"/><rect x="874.8" y="583.2" width="36.45" height="36.45" fill="#638889"/><polygon points="911.25,583.2 911.25,619.6500000000001 874.8,619.6500000000001" fill="#F9EFDB"/><rect x="911.25" y="583.2" width="36.45" height="36.45" fill="#638889"/><polygon points="911.25,583.2 947.7,619.6500000000001 911.25,619.6500000000001" fill="#9DBC98"/><rect x="874.8" y="619.65" width="36.45" height="36.45" fill="#EBD9B4"/><polygon points="874.8,619.65 911.25,619.65 911.25,656.1" fill="#EBD9B4"/><rect x="911.25" y="619.65" width="36.45" height="36.45" fill="#638889"/><polygon points="911.25,619.65 947.7,619.65 911.25,656.1" fill="#9DBC98"/><rect x="947.7" y="583.2" width="72.9" height="72.9" fill="#ffffff"/><rect x="947.7" y="583.2" width="36.45" height="36.45" fill="#F9EFDB"/><path d="M 947.7 619.6500000000001 A 36.45 36.45 0 0 1  984.1500000000001 583.2 L 984.1500000000001 619.6500000000001" fill="#F9EFDB"/><rect x="984.15" y="583.2" width="36.45" height="36.45" fill="#F9EFDB"/><path d="M 984.15 583.2 A 36.45 36.45 0 0 1 1020.6 619.6500000000001 L 984.15 619.6500000000001" fill="#F9EFDB"/><rect x="947.7" y="619.65" width="36.45" height="36.45" fill="#638889"/><path d="M 947.7 619.65 A 36.45 36.45 0 0 0 984.1500000000001 656.1 L 984.1500000000001 619.65" fill="#638889"/><rect x="984.15" y="619.65" width="36.45" height="36.45" fill="#F9EFDB"/><path d="M 984.15 656.1 A 36.45 36.45 0 0 0 1020.6 619.65 L 984.15 619.65" fill="#9DBC98"/><rect x="1020.6000000000001" y="583.2" width="72.9" height="72.9" fill="#ffffff"/><rect x="1020.6" y="583.2" width="36.45" height="36.45" fill="#EBD9B4"/><path d="M 1020.6 583.2 A 36.45 36.45 0 0 1 1057.05 619.6500000000001 L 1020.6 619.6500000000001" fill="#638889"/><rect x="1057.05" y="583.2" width="36.45" height="36.45" fill="#EBD9B4"/><path d="M 1057.05 619.6500000000001 A 36.45 36.45 0 0 1  1093.5 583.2 L 1093.5 619.6500000000001" fill="#EBD9B4"/><rect x="1020.6" y="619.65" width="36.45" height="36.45" fill="#EBD9B4"/><path d="M 1020.6 656.1 A 36.45 36.45 0 0 0 1057.05 619.65 L 1020.6 619.65" fill="#638889"/><rect x="1057.05" y="619.65" width="36.45" height="36.45" fill="#EBD9B4"/><path d="M 1057.05 619.65 A 36.45 36.45 0 0 0 1093.5 656.1 L 1093.5 619.65" fill="#EBD9B4"/><rect x="1093.5" y="583.2" width="72.9" height="72.9" fill="#EBD9B4"/><path d="M 1093.5 583.2 A 72.9 72.9 0 0 1 1166.4 656.1 L 1093.5 656.1" fill="#638889"/><rect x="0" y="656.1" width="72.9" height="72.9" fill="#638889"/><path d="M 0 729 A 72.9 72.9 0 0 1  72.9 656.1 L 72.9 729" fill="#638889"/><rect x="72.9" y="656.1" width="72.9" height="72.9" fill="#638889"/><rect x="72.9" y="656.1" width="72.9" height="72.9" fill="#9DBC98"/><rect x="145.8" y="656.1" width="72.9" height="72.9" fill="#9DBC98"/><rect x="145.8" y="656.1" width="72.9" height="72.9" fill="#9DBC98"/><rect x="218.7" y="656.1" width="72.9" height="72.9" fill="#9DBC98"/><polygon points="218.7,656.1 291.6,656.1 291.6,729" fill="#F9EFDB"/><rect x="291.6" y="656.1" width="72.9" height="72.9" fill="#ffffff"/><rect x="291.6" y="656.1" width="36.45" height="36.45" fill="#EBD9B4"/><polygon points="328.05,656.1 328.05,692.5500000000001 291.6,692.5500000000001" fill="#638889"/><rect x="328.05" y="656.1" width="36.45" height="36.45" fill="#F9EFDB"/><polygon points="328.05,656.1 364.5,692.5500000000001 328.05,692.5500000000001" fill="#638889"/><rect x="291.6" y="692.55" width="36.45" height="36.45" fill="#F9EFDB"/><polygon points="291.6,692.55 328.05,692.55 328.05,729" fill="#F9EFDB"/><rect x="328.05" y="692.55" width="36.45" height="36.45" fill="#EBD9B4"/><polygon points="328.05,692.55 364.5,692.55 328.05,729" fill="#638889"/><rect x="364.5" y="656.1" width="72.9" height="72.9" fill="#638889"/><path d="M 364.5 656.1 A 72.9 72.9 0 0 0 437.4 729 L 437.4 656.1" fill="#638889"/><rect x="437.4" y="656.1" width="72.9" height="72.9" fill="#9DBC98"/><polygon points="510.29999999999995,656.1 510.29999999999995,729 437.4,729" fill="#F9EFDB"/><rect x="510.3" y="656.1" width="72.9" height="72.9" fill="#F9EFDB"/><path d="M 510.3 656.1 A 72.9 72.9 0 0 0 583.2 729 L 583.2 656.1" fill="#638889"/><rect x="583.2" y="656.1" width="72.9" height="72.9" fill="#F9EFDB"/><path d="M 583.2 729 A 72.9 72.9 0 0 1  656.1 656.1 L 583.2 729 A 72.9 72.9 0 0 0 656.1 656.1" fill="#638889"/><rect x="656.1" y="656.1" width="72.9" height="72.9" fill="#ffffff"/><rect x="656.1" y="656.1" width="36.45" height="36.45" fill="#9DBC98"/><path d="M 656.1 656.1 A 36.45 36.45 0 0 1 692.5500000000001 692.5500000000001 L 656.1 692.5500000000001" fill="#9DBC98"/><rect x="692.55" y="656.1" width="36.45" height="36.45" fill="#9DBC98"/><path d="M 692.55 692.5500000000001 A 36.45 36.45 0 0 1  729 656.1 L 729 692.5500000000001" fill="#F9EFDB"/><rect x="656.1" y="692.55" width="36.45" height="36.45" fill="#F9EFDB"/><path d="M 656.1 729 A 36.45 36.45 0 0 0 692.5500000000001 692.55 L 656.1 692.55" fill="#F9EFDB"/><rect x="692.55" y="692.55" width="36.45" height="36.45" fill="#EBD9B4"/><path d="M 692.55 692.55 A 36.45 36.45 0 0 0 729 729 L 729 692.55" fill="#EBD9B4"/><rect x="729" y="656.1" width="72.9" height="72.9" fill="#EBD9B4"/><rect x="729" y="656.1" width="72.9" height="72.9" fill="#F9EFDB"/><rect x="801.9" y="656.1" width="72.9" height="72.9" fill="#9DBC98"/><polygon points="801.9,656.1 874.8,729 801.9,729" fill="#EBD9B4"/><rect x="874.8" y="656.1" width="72.9" height="72.9" fill="#EBD9B4"/><polygon points="874.8,656.1 947.6999999999999,729 874.8,729" fill="#638889"/><rect x="947.7" y="656.1" width="72.9" height="72.9" fill="#638889"/><rect x="947.7" y="656.1" width="72.9" height="72.9" fill="#F9EFDB"/><rect x="1020.6" y="656.1" width="72.9" height="72.9" fill="#EBD9B4"/><path d="M 1020.6 656.1 A 72.9 72.9 0 0 0 1093.5 729 L 1093.5 656.1" fill="#EBD9B4"/><rect x="1093.5" y="656.1" width="72.9" height="72.9" fill="#ffffff"/><rect x="1093.5" y="656.1" width="36.45" height="36.45" fill="#638889"/><path d="M 1093.5 692.5500000000001 A 36.45 36.45 0 0 0 1129.95 656.1 L 1093.5 656.1" fill="#9DBC98"/><rect x="1129.95" y="656.1" width="36.45" height="36.45" fill="#638889"/><path d="M 1129.95 656.1 A 36.45 36.45 0 0 0 1166.4 692.5500000000001 L 1166.4 656.1" fill="#638889"/><rect x="1093.5" y="692.55" width="36.45" height="36.45" fill="#638889"/><path d="M 1093.5 692.55 A 36.45 36.45 0 0 1 1129.95 729 L 1093.5 729" fill="#F9EFDB"/><rect x="1129.95" y="692.55" width="36.45" height="36.45" fill="#EBD9B4"/><path d="M 1129.95 729 A 36.45 36.45 0 0 1  1166.4 692.55 L 1166.4 729" fill="#EBD9B4"/></g></svg>